<svg height="100%" stroke-miterlimit="10" style="fill-rule:nonzero;clip-rule:evenodd;stroke-linecap:round;stroke-linejoin:round;" version="1.1" viewBox="0 0 180 180" width="100%" xml:space="preserve" xmlns="http://www.w3.org/2000/svg" xmlns:xlink="http://www.w3.org/1999/xlink">
<defs/>
<g id="Layer-2">
<path d="M46.4075 114.124C46.4075 114.124 7.97605 100.943 26.2151 39.6541C34.1387 21.0631 44.4367 26.7688 39.587 36.292C23.1448 67.3692 38.2369 94.9848 46.4075 105.537C46.4075 105.537 46.5195 92.6858 50.9715 82.4284C26.1059 58.5938 49.6676 57.0131 58.9481 72.3575C63.6993 68.1288 72.278 64.0717 78 59.9677L89.3405 36.1533L89.3405 36.1533L103.547 59.5304C103.554 59.5412 103.569 59.5484 103.581 59.5465L106.603 59.0811C106.615 59.0792 106.631 59.069 106.638 59.0584L120.395 37.7722L120.395 37.7722L127.713 60.8373C127.713 60.8373 142.061 78.0283 140.546 96.7386C168 90 159.885 107.365 141.729 108.314C143.702 124.161 136.337 143.877 128.491 152.566C125.914 159.065 127.317 161.655 130.854 166.477C134.391 171.299 117.144 166.322 115.348 155.872C115.348 155.872 94.1042 161.876 78 153.058C78 153.058 72.3885 158.309 78 166.36C78 170.18 70.6157 167.33 61.2411 156.181C53.5277 144.776 44.3873 123.035 46.4075 114.124Z" fill="#ff7300" fill-rule="nonzero" opacity="1" stroke="#1d1d1d" stroke-linecap="butt" stroke-linejoin="round" stroke-width="1"/>
</g>
<g id="Layer-3">
<path d="M64.785 82.4284C64.785 82.4284 71.4004 139.151 72.2709 142.264C73.1413 145.377 133.55 103.181 134.769 102.316C135.988 101.451 67.5704 83.1202 64.785 82.4284Z" fill="#272727" fill-rule="nonzero" opacity="1" stroke="none"/>
</g>
<g id="Layer-4">
<path d="M99.785 72.3575C99.785 69.6026 101.907 67.3692 104.524 67.3692C107.141 67.3692 109.263 69.6026 109.263 72.3575C109.263 75.1125 107.141 77.3458 104.524 77.3458C101.907 77.3458 99.785 75.1125 99.785 72.3575Z" fill="#f2f2f2" fill-rule="nonzero" opacity="1" stroke="#000000" stroke-linecap="butt" stroke-linejoin="round" stroke-width="1"/>
<path d="M104.263 72.3575C104.263 70.9768 105.382 69.8575 106.763 69.8575C108.144 69.8575 109.263 70.9768 109.263 72.3575C109.263 73.7382 108.144 74.8575 106.763 74.8575C105.382 74.8575 104.263 73.7382 104.263 72.3575Z" fill="#000000" fill-rule="nonzero" opacity="1" stroke="#000000" stroke-linecap="butt" stroke-linejoin="round" stroke-width="1"/>
</g>
<g id="Layer-4-скопировать">
<path d="M111.548 70.7217C111.548 68.5126 113.249 66.7217 115.348 66.7217C117.448 66.7217 119.149 68.5126 119.149 70.7217C119.149 72.9309 117.448 74.7217 115.348 74.7217C113.249 74.7217 111.548 72.9309 111.548 70.7217Z" fill="#f2f2f2" fill-rule="nonzero" opacity="1" stroke="#000000" stroke-linecap="butt" stroke-linejoin="round" stroke-width="1"/>
<path d="M115.139 70.7217C115.139 69.6146 116.037 68.717 117.144 68.717C118.252 68.717 119.149 69.6146 119.149 70.7217C119.149 71.8289 118.252 72.7264 117.144 72.7264C116.037 72.7264 115.139 71.8289 115.139 70.7217Z" fill="#000000" fill-rule="nonzero" opacity="1" stroke="#000000" stroke-linecap="butt" stroke-linejoin="round" stroke-width="1"/>
</g>
<g id="Layer-5">
<path d="M110.939 77.1281C110.939 76.3714 112.306 75.4857 113.018 75.4857C113.73 75.4857 115.139 76.208 115.139 76.9647C115.139 77.7214 114.689 77.1119 113.226 79.2059C111.854 77.1119 110.939 77.8847 110.939 77.1281Z" fill="#272727" fill-rule="nonzero" opacity="1" stroke="#000000" stroke-linecap="butt" stroke-linejoin="round" stroke-width="1"/>
<path d="M105.023 81.9852C105.023 81.9852 105.312 83.0997 106.381 83.6043C107.994 84.366 110.846 84.254 112.895 80.921C112.895 80.921 116.258 85.0987 119.875 82.4045C120.325 82.0691 120.597 81.4285 121.055 80.8659" fill="none" opacity="1" stroke="#000000" stroke-linecap="butt" stroke-linejoin="round" stroke-width="1"/>
</g>
<g id="Layer-1">
<path d="M101.523 46.297C101.523 44.364 103.09 42.797 105.023 42.797C106.956 42.797 108.523 44.364 108.523 46.297C108.523 48.23 106.956 49.797 105.023 49.797C103.09 49.797 101.523 48.23 101.523 46.297Z" fill="#ff1d24" fill-rule="nonzero" opacity="1" stroke="#1d0f0c" stroke-linecap="butt" stroke-linejoin="round" stroke-width="0.939186"/>
<path d="M101.023 27.4121C101.023 20.5085 102.814 14.9121 105.023 14.9121C107.232 14.9121 109.023 20.5085 109.023 27.4121C109.023 34.3157 107.232 39.9121 105.023 39.9121C102.814 39.9121 101.023 34.3157 101.023 27.4121Z" fill="#ff1d24" fill-rule="nonzero" opacity="1" stroke="#1d0f0c" stroke-linecap="butt" stroke-linejoin="round" stroke-width="0.912293"/>
</g>
</svg>
