<svg viewBox="0 0 180 180" xml:space="preserve" xmlns="http://www.w3.org/2000/svg" xmlns:xlink="http://www.w3.org/1999/xlink">
<defs>
<filter color-interpolation-filters="sRGB" filterUnits="userSpaceOnUse" height="23.3479" id="Filter" width="24.3199" x="82.7326" y="64.2388">
<feGaussianBlur in="SourceGraphic" result="Blur" stdDeviation="2.90698"/>
</filter>
<filter color-interpolation-filters="sRGB" filterUnits="userSpaceOnUse" height="23.3479" id="Filter_2" width="24.3199" x="46.64" y="60.5186">
<feGaussianBlur in="SourceGraphic" result="Blur" stdDeviation="2.90698"/>
</filter>
</defs>
<g id="Слой-2">
<path d="M139.381 106.254C139.381 106.254 177.812 93.0731 159.574 31.7846C151.65 13.1936 141.352 18.8993 146.202 28.4225C162.644 59.4997 147.552 87.1154 139.381 97.6671C139.381 97.6671 133.425 58.8523 107.789 52.0982L102.999 28.6826L82.2423 51.661C82.2357 51.6718 82.2203 51.6789 82.2079 51.677L79.1868 51.2116C79.1744 51.2097 79.1587 51.1996 79.1518 51.189L76.5266 30.7636L58.0762 52.9679C58.0762 52.9679 44.8323 73.7937 46.0168 88.6936C36.0339 87.0753 27.9489 100.947 44.9439 95.4122C48.943 97.3905 53.4469 104.559 51.0046 104.559C39.1116 99.6751 26.9375 104.559 55.6645 116.129C70.6092 128.638 58.473 153.785 54.936 158.607C51.3991 163.429 68.6452 158.453 70.441 148.002C70.441 148.002 91.6851 154.007 107.789 145.188C107.789 145.188 113.401 150.44 107.789 158.49C107.789 162.31 115.173 159.461 124.548 148.311C132.261 136.907 141.402 115.165 139.381 106.254Z" fill="#3ea6ff" fill-rule="nonzero" opacity="1" stroke="#1d1d1d" stroke-linecap="butt" stroke-linejoin="round" stroke-width="1"/>
</g>
<g id="Слой-1">
<path d="M90 75.9127C90 73.4791 92.1904 71.5062 94.8925 71.5062C97.5946 71.5062 99.785 73.4791 99.785 75.9127C99.785 78.3463 97.5946 80.3192 94.8925 80.3192C92.1904 80.3192 90 78.3463 90 75.9127Z" fill="#ef775c" fill-rule="nonzero" filter="url(#Filter)" opacity="0.341085" stroke="none"/>
<path d="M53.9074 72.1925C53.9074 69.7589 56.0978 67.786 58.7999 67.786C61.502 67.786 63.6924 69.7589 63.6924 72.1925C63.6924 74.6261 61.502 76.599 58.7999 76.599C56.0978 76.599 53.9074 74.6261 53.9074 72.1925Z" fill="#ef775c" fill-rule="nonzero" filter="url(#Filter_2)" opacity="0.341085" stroke="none"/>
</g>
<g id="Слой-3">
<path d="M113.485 139.641C113.485 139.641 125.891 83.8974 126.092 80.6714C126.294 77.4454 55.3685 97.4304 53.9333 97.8462C52.4981 98.2621 111.082 138.072 113.485 139.641Z" fill="#272727" fill-rule="nonzero" opacity="1" stroke="none"/>
</g>
<g id="Слой-6">
<path d="M97.6392 121.11L100.797 121.11C101.402 121.11 101.92 120.941 102.353 120.602C102.785 120.263 103.069 119.802 103.205 119.218L103.877 116.295L104.377 116.123L106.925 117.686C107.425 118.009 107.952 118.135 108.504 118.062C109.056 117.989 109.546 117.739 109.974 117.311L112.162 115.138C112.589 114.711 112.84 114.221 112.912 113.669C112.985 113.116 112.86 112.59 112.537 112.09L110.943 109.557L111.13 109.088L114.054 108.401C114.627 108.265 115.085 107.978 115.429 107.541C115.773 107.103 115.945 106.587 115.945 105.993L115.945 102.898C115.945 102.304 115.773 101.788 115.429 101.35C115.085 100.912 114.627 100.626 114.054 100.49L111.162 99.7869L110.958 99.2866L112.553 96.7541C112.876 96.2538 113.001 95.7301 112.928 95.183C112.855 94.6359 112.605 94.1434 112.178 93.7057L109.989 91.5171C109.572 91.1002 109.088 90.8553 108.535 90.7824C107.983 90.7094 107.457 90.8293 106.956 91.1419L104.408 92.7052L103.877 92.502L103.205 89.5786C103.069 89.0054 102.785 88.5469 102.353 88.203C101.92 87.859 101.402 87.6871 100.797 87.6871L97.6392 87.6871C97.0348 87.6871 96.5163 87.859 96.0838 88.203C95.6513 88.5469 95.3673 89.0054 95.2318 89.5786L94.5439 92.502L94.0124 92.7052L91.4799 91.1419C90.9692 90.8293 90.4403 90.7094 89.8932 90.7824C89.346 90.8553 88.8588 91.1002 88.4315 91.5171L86.2586 93.7057C85.8209 94.1434 85.5681 94.6359 85.5004 95.183C85.4326 95.7301 85.5603 96.2538 85.8834 96.7541L87.4623 99.2866L87.2747 99.7869L84.3826 100.49C83.799 100.626 83.3378 100.912 82.9991 101.35C82.6604 101.788 82.4911 102.304 82.4911 102.898L82.4911 105.993C82.4911 106.587 82.663 107.103 83.007 107.541C83.3509 107.978 83.8094 108.265 84.3826 108.401L87.306 109.088L87.4779 109.557L85.899 112.09C85.5759 112.59 85.4483 113.116 85.516 113.669C85.5838 114.221 85.8365 114.711 86.2742 115.138L88.4472 117.311C88.8745 117.739 89.3643 117.989 89.9166 118.062C90.469 118.135 91.0005 118.009 91.5112 117.686L94.0437 116.123L94.5439 116.295L95.2318 119.218C95.3673 119.802 95.6513 120.263 96.0838 120.602C96.5163 120.941 97.0348 121.11 97.6392 121.11ZM97.8894 118.671C97.6288 118.671 97.4777 118.551 97.436 118.312L96.498 114.435C96.0186 114.32 95.5627 114.172 95.1302 113.989C94.6977 113.807 94.3147 113.611 93.9812 113.403L90.5732 115.498C90.3856 115.633 90.1928 115.607 89.9948 115.42L88.1501 113.575C87.9834 113.419 87.9625 113.226 88.0876 112.997L90.1824 109.62C90.0052 109.286 89.8228 108.906 89.6353 108.479C89.4477 108.051 89.2913 107.598 89.1663 107.119L85.2893 106.196C85.0496 106.155 84.9298 106.003 84.9298 105.743L84.9298 103.132C84.9298 102.882 85.0496 102.731 85.2893 102.679L89.1506 101.741C89.2757 101.23 89.4398 100.756 89.6431 100.318C89.8463 99.8807 90.0156 99.5159 90.1511 99.2241L88.072 95.8474C87.9365 95.6181 87.9521 95.4149 88.1189 95.2377L89.9792 93.4243C90.1668 93.2576 90.3648 93.2315 90.5732 93.3461L93.9499 95.394C94.2834 95.2065 94.6768 95.0189 95.1302 94.8313C95.5835 94.6437 96.0447 94.4873 96.5137 94.3623L97.436 90.4853C97.4777 90.2456 97.6288 90.1258 97.8894 90.1258L100.547 90.1258C100.807 90.1258 100.953 90.2456 100.985 90.4853L101.938 94.3935C102.428 94.5186 102.884 94.6723 103.306 94.8547C103.728 95.0371 104.111 95.2221 104.455 95.4097L107.847 93.3461C108.066 93.2315 108.27 93.2576 108.457 93.4243L110.302 95.2377C110.479 95.4149 110.495 95.6181 110.349 95.8474L108.27 99.2241C108.415 99.5159 108.587 99.8807 108.785 100.318C108.983 100.756 109.145 101.23 109.27 101.741L113.147 102.679C113.387 102.731 113.507 102.882 113.507 103.132L113.507 105.743C113.507 106.003 113.387 106.155 113.147 106.196L109.254 107.119C109.129 107.598 108.976 108.051 108.793 108.479C108.611 108.906 108.426 109.286 108.238 109.62L110.333 112.997C110.469 113.226 110.448 113.419 110.271 113.575L108.441 115.42C108.243 115.607 108.045 115.633 107.847 115.498L104.439 113.403C104.106 113.611 103.726 113.807 103.298 113.989C102.871 114.172 102.418 114.32 101.938 114.435L100.985 118.312C100.953 118.551 100.807 118.671 100.547 118.671L97.8894 118.671ZM99.2181 110.37C100.312 110.37 101.31 110.102 102.212 109.565C103.113 109.028 103.832 108.307 104.369 107.4C104.906 106.493 105.174 105.493 105.174 104.399C105.174 103.315 104.906 102.322 104.369 101.42C103.832 100.519 103.113 99.7999 102.212 99.2632C101.31 98.7264 100.312 98.4581 99.2181 98.4581C98.1239 98.4581 97.126 98.7264 96.2245 99.2632C95.323 99.7999 94.6013 100.519 94.0593 101.42C93.5174 102.322 93.2464 103.315 93.2464 104.399C93.2464 105.493 93.5174 106.491 94.0593 107.392C94.6013 108.294 95.323 109.015 96.2245 109.557C97.126 110.099 98.1239 110.37 99.2181 110.37ZM99.2181 107.947C98.572 107.947 97.9806 107.788 97.4438 107.47C96.9071 107.153 96.4798 106.725 96.1619 106.188C95.8441 105.652 95.6851 105.055 95.6851 104.399C95.6851 103.752 95.8441 103.164 96.1619 102.632C96.4798 102.101 96.9071 101.676 97.4438 101.358C97.9806 101.04 98.572 100.881 99.2181 100.881C99.8539 100.881 100.438 101.04 100.969 101.358C101.501 101.676 101.925 102.101 102.243 102.632C102.561 103.164 102.72 103.752 102.72 104.399C102.72 105.045 102.561 105.636 102.243 106.173C101.925 106.71 101.501 107.139 100.969 107.463C100.438 107.786 99.8539 107.947 99.2181 107.947Z" fill="#3ea6ff" opacity="1" stroke="#000000" stroke-linecap="butt" stroke-linejoin="round" stroke-width="0.101809"/>
</g>
<g id="Слой-4">
<path d="M87.3809 64.276C87.3809 60.6917 84.5872 57.786 81.1409 57.786C77.6946 57.786 74.9009 60.6917 74.9009 64.276C74.9009 67.8604 77.6946 70.766 81.1409 70.766C84.5872 70.766 87.3809 67.8604 87.3809 64.276Z" fill="#f2f2f2" fill-rule="nonzero" opacity="1" stroke="#000000" stroke-linecap="butt" stroke-linejoin="round" stroke-width="1"/>
<path d="M81.4847 64.276C81.4847 62.4797 80.0109 61.0234 78.1928 61.0234C76.3747 61.0234 74.9009 62.4797 74.9009 64.276C74.9009 66.0724 76.3747 67.5286 78.1928 67.5286C80.0109 67.5286 81.4847 66.0724 81.4847 64.276Z" fill="#000000" fill-rule="nonzero" opacity="1" stroke="#000000" stroke-linecap="butt" stroke-linejoin="round" stroke-width="1"/>
</g>
<g id="Слой-4-скопировать">
<path d="M73.2924 62.786C73.2924 60.0246 71.1434 57.786 68.4924 57.786C65.8414 57.786 63.6924 60.0246 63.6924 62.786C63.6924 65.5475 65.8414 67.786 68.4924 67.786C71.1434 67.786 73.2924 65.5475 73.2924 62.786Z" fill="#f2f2f2" fill-rule="nonzero" opacity="1" stroke="#000000" stroke-linecap="butt" stroke-linejoin="round" stroke-width="1"/>
<path d="M68.7569 62.786C68.7569 61.4021 67.6232 60.2802 66.2246 60.2802C64.8261 60.2802 63.6924 61.4021 63.6924 62.786C63.6924 64.17 64.8261 65.2919 66.2246 65.2919C67.6232 65.2919 68.7569 64.17 68.7569 62.786Z" fill="#000000" fill-rule="nonzero" opacity="1" stroke="#000000" stroke-linecap="butt" stroke-linejoin="round" stroke-width="1"/>
</g>
<g id="Слой-5">
<path d="M74.9009 69.4283C74.9009 68.6717 73.5337 67.786 72.8217 67.786C72.1097 67.786 70.701 68.5083 70.701 69.265C70.701 70.0217 71.151 69.4122 72.6138 71.5062C73.9862 69.4122 74.9009 70.185 74.9009 69.4283Z" fill="#272727" fill-rule="nonzero" opacity="1" stroke="#000000" stroke-linecap="butt" stroke-linejoin="round" stroke-width="1"/>
<path d="M80.8169 74.2854C80.8169 74.2854 80.5277 75.4 79.4592 75.9046C77.8463 76.6663 74.9945 76.5543 72.9453 73.2213C72.9453 73.2213 69.582 77.399 65.9654 74.7048C65.5152 74.3694 65.2435 73.7288 64.785 73.1662" fill="none" opacity="1" stroke="#000000" stroke-linecap="butt" stroke-linejoin="round" stroke-width="1"/>
</g>
</svg>
