<svg version="1.1" viewBox="0 0 180 180" xml:space="preserve" xmlns="http://www.w3.org/2000/svg" xmlns:xlink="http://www.w3.org/1999/xlink">
<defs/>
<g id="Слой-6">
<path d="M24.9823 62.8019C24.9823 58.6378 26.6138 55.2621 28.6264 55.2621L160.779 55.2621C162.792 55.2621 164.423 58.6378 164.423 62.8019L164.423 147.525C164.423 151.69 162.792 155.065 160.779 155.065L28.6264 155.065C26.6138 155.065 24.9823 151.69 24.9823 147.525L24.9823 62.8019Z" fill="#3ea6ff80" fill-rule="nonzero" opacity="1" stroke="#1d1d1d" stroke-linecap="butt" stroke-linejoin="round" stroke-width="1"/>
<path d="M24.9823 59.4956L164.423 60.2611" fill="none" opacity="1" stroke="#1d1d1d" stroke-linecap="butt" stroke-linejoin="round" stroke-width="1"/>
<path d="M31.6385 69.3409L56.9429 69.3409L56.9429 83.7559L31.6385 83.7559L31.6385 69.3409Z" fill="#61a3c5" fill-rule="nonzero" opacity="1" stroke="#1d1d1d" stroke-linecap="butt" stroke-linejoin="round" stroke-width="1"/>
<path d="M31.8685 89.9299L57.1729 89.9299L57.1729 104.345L31.8685 104.345L31.8685 89.9299Z" fill="#61a3c5" fill-rule="nonzero" opacity="1" stroke="#1d1d1d" stroke-linecap="butt" stroke-linejoin="round" stroke-width="1"/>
<path d="M31.6385 111.043L56.9429 111.043L56.9429 125.458L31.6385 125.458L31.6385 111.043Z" fill="#61a3c5" fill-rule="nonzero" opacity="1" stroke="#1d1d1d" stroke-linecap="butt" stroke-linejoin="round" stroke-width="1"/>
<path d="M31.6385 134.978C31.6385 134.594 31.9492 134.284 32.3325 134.284L56.2488 134.284C56.6321 134.284 56.9429 134.594 56.9429 134.978L56.9429 148.005C56.9429 148.388 56.6321 148.699 56.2488 148.699L32.3325 148.699C31.9492 148.699 31.6385 148.388 31.6385 148.005L31.6385 134.978Z" fill="#61a3c5" fill-rule="nonzero" opacity="1" stroke="#1d1d1d" stroke-linecap="butt" stroke-linejoin="round" stroke-width="1"/>
<path d="M44.2907 55.2621L164.423 55.2621L164.423 59.4956L44.5207 59.4956L44.2907 55.2621Z" fill="#373737" fill-rule="nonzero" opacity="1" stroke="#1d1d1d" stroke-linecap="butt" stroke-linejoin="round" stroke-width="1"/>
<path d="M64.5158 137.845L157.43 137.845L157.43 134.284L64.5158 134.284L64.5158 137.845Z" fill="#303030" fill-rule="nonzero" opacity="1" stroke="#1d1d1d" stroke-linecap="butt" stroke-linejoin="round" stroke-width="1"/>
<path d="M140.831 141.491L157.073 141.491L157.073 145.211L140.831 145.211L140.831 141.491Z" fill="#303030" fill-rule="nonzero" opacity="1" stroke="#1d1d1d" stroke-linecap="butt" stroke-linejoin="round" stroke-width="1"/>
</g>
<clipPath id="ArtboardFrame">
<rect height="180" width="180" x="0" y="0"/>
</clipPath>
<g clip-path="url(#ArtboardFrame)" id="Слой-2">
<path d="M41.5691 136.712C41.5691 136.712-19.6329 109.115 7.18476 18.9999C18.835-8.33515 33.9767 0.0541347 26.8459 14.0564C2.67033 59.7505 26.4709 114.266 43.6231 126.003C43.6231 126.003 36.7408 69.4511 83.3261 48.8677L89.2692 19.421L120.889 48.2249C120.899 48.2407 120.921 48.2513 120.94 48.2485L125.381 47.5642C125.4 47.5614 125.423 47.5464 125.433 47.5309L123.059 20.0115L156.422 50.1465C156.422 50.1465 179.988 81.8926 174.814 112.771C182.429 122.327 177.567 132.229 170.017 138.726C162.852 144.892 167.1 132.215 170.017 127.786C167.395 115.277 140.831 141.985 157.136 162.777C170.017 169.98 170.017 176.644 148.961 166.727C127.21 166.727 110.973 171.858 110.973 171.858C110.973 171.858 131.852 186.006 90.8429 174.08C74.155 179.976 43.783 143.13 41.5691 136.712Z" fill="#e94420" fill-rule="nonzero" opacity="1" stroke="#1d1d1d" stroke-linecap="butt" stroke-linejoin="round" stroke-width="1"/>
</g>
<g id="Слой-3">
<path d="M64.4322 84.19C64.4322 84.19 74.4105 162.219 75.7235 166.501C77.0364 170.783 168.154 112.737 169.992 111.548C171.831 110.358 68.6336 85.1416 64.4322 84.19Z" fill="#272727" fill-rule="nonzero" opacity="1" stroke="#e94420" stroke-linecap="butt" stroke-linejoin="miter" stroke-width="1.31235"/>
</g>
<g id="Слой-1">
<g fill="#46b6ef" opacity="1" stroke="none">
<path d="M95.717 130.017C95.6525 129.872 95.5356 129.799 95.3662 129.799C95.1968 129.799 95.0718 129.751 94.9911 129.654C94.975 129.622 94.9185 129.529 94.8218 129.376C94.725 129.223 94.6604 129.106 94.6282 129.025L94.2652 128.299C94.2652 128.235 94.2693 128.114 94.2773 127.936C94.2854 127.759 94.2894 127.573 94.2894 127.38C94.2894 127.186 94.2854 127.005 94.2773 126.835C94.2693 126.666 94.2652 126.541 94.2652 126.46C94.2652 126.444 94.2572 126.408 94.241 126.351C94.2249 126.295 94.2128 126.234 94.2047 126.17C94.1967 126.105 94.1846 126.041 94.1684 125.976C94.1523 125.912 94.1442 125.871 94.1442 125.855C94.1442 125.823 94.1442 125.754 94.1442 125.65C94.1442 125.545 94.1442 125.432 94.1442 125.311C94.1442 125.19 94.1442 125.077 94.1442 124.972C94.1442 124.867 94.1442 124.799 94.1442 124.766C94.1281 124.686 94.1079 124.537 94.0838 124.319C94.0596 124.101 94.0394 123.96 94.0233 123.895C93.9426 123.895 93.7934 123.879 93.5756 123.847C93.3578 123.815 93.2248 123.79 93.1764 123.774C92.9344 123.726 92.7731 123.673 92.6924 123.617C92.6118 123.561 92.5594 123.496 92.5352 123.423C92.511 123.351 92.4827 123.27 92.4505 123.181C92.4182 123.093 92.3295 123 92.1843 122.903C92.1198 122.935 92.0674 123 92.027 123.097C91.9867 123.194 91.9585 123.302 91.9423 123.423C91.9262 123.544 91.9181 123.669 91.9181 123.799C91.9181 123.928 91.9181 124.024 91.9181 124.089C91.7084 124.089 91.5028 124.04 91.3011 123.944C91.0995 123.847 90.9099 123.75 90.7325 123.653C90.7164 123.653 90.6922 123.633 90.6599 123.593C90.6277 123.553 90.6035 123.532 90.5873 123.532L90.5631 123.532C90.547 123.532 90.5309 123.524 90.5147 123.508C90.4825 123.508 90.4179 123.544 90.3212 123.617C90.2244 123.69 90.1518 123.742 90.1034 123.774C90.0066 123.823 89.9018 123.859 89.7888 123.883C89.6759 123.907 89.6195 123.992 89.6195 124.137L87.1756 124.137C87.1595 124.121 87.1232 124.097 87.0667 124.065C87.0102 124.032 86.9659 124.016 86.9336 124.016L86.0867 124.016C86.0545 124.016 85.9496 123.976 85.7722 123.895C85.5947 123.815 85.4899 123.774 85.4576 123.774C85.4254 123.758 85.3447 123.754 85.2157 123.762C85.0866 123.77 85.0059 123.774 84.9737 123.774L84.7317 123.532C84.7317 123.516 84.7156 123.512 84.6833 123.52C84.6511 123.528 84.6269 123.532 84.6107 123.532C84.4978 123.419 84.4293 123.278 84.4051 123.109C84.3809 122.94 84.3204 122.79 84.2236 122.661C84.1429 122.532 84.1026 122.431 84.1026 122.359C84.1026 122.286 84.1026 122.145 84.1026 121.935C84.1026 121.903 84.1066 121.826 84.1147 121.705C84.1228 121.585 84.1268 121.5 84.1268 121.451C84.2397 121.355 84.3526 121.306 84.4656 121.306C84.7237 121.306 84.893 121.375 84.9737 121.512C85.0543 121.649 85.1189 121.718 85.1673 121.718C85.3124 121.718 85.4415 121.665 85.5544 121.56C85.6673 121.455 85.7601 121.33 85.8327 121.185C85.9053 121.04 85.9698 120.891 86.0262 120.738C86.0827 120.584 86.1351 120.459 86.1835 120.363C86.1997 120.346 86.244 120.31 86.3166 120.254C86.3892 120.197 86.4255 120.153 86.4255 120.121C86.4578 120.072 86.4578 119.983 86.4255 119.854C86.3932 119.725 86.4416 119.645 86.5707 119.612C86.6029 119.612 86.6594 119.621 86.74 119.637C86.8207 119.653 86.8772 119.661 86.9094 119.661C86.9094 119.532 86.8893 119.443 86.8489 119.395C86.8086 119.346 86.7159 119.306 86.5707 119.274C86.6029 119.241 86.6836 119.197 86.8126 119.141C86.9417 119.084 87.0223 119.048 87.0546 119.032C87.0869 119.016 87.1675 118.995 87.2966 118.971C87.4256 118.947 87.5063 118.919 87.5385 118.887C87.5547 118.854 87.5547 118.774 87.5385 118.645C87.5224 118.516 87.5224 118.435 87.5385 118.403C87.5547 118.354 87.6031 118.302 87.6837 118.245C87.7644 118.189 87.8491 118.132 87.9378 118.076C88.0265 118.02 88.0951 117.955 88.1435 117.882C88.1919 117.81 88.1919 117.741 88.1435 117.677C88.1919 117.644 88.2765 117.616 88.3975 117.592C88.5185 117.568 88.5951 117.556 88.6274 117.556C88.6597 117.556 88.7242 117.576 88.821 117.616C88.9178 117.657 88.9823 117.677 89.0145 117.677L89.0871 117.677C89.2323 117.677 89.2847 117.608 89.2444 117.471C89.2041 117.334 89.2081 117.233 89.2565 117.169C89.2888 117.136 89.3533 117.104 89.4501 117.072C89.5469 117.04 89.6558 117.007 89.7767 116.975C89.8977 116.943 90.0106 116.902 90.1155 116.854C90.2203 116.806 90.297 116.749 90.3454 116.685C90.3615 116.669 90.3857 116.628 90.4179 116.564C90.4502 116.499 90.4744 116.459 90.4905 116.443C90.4905 116.427 90.5268 116.406 90.5994 116.382C90.672 116.358 90.7164 116.346 90.7325 116.346C90.7486 116.33 90.7446 116.306 90.7204 116.273C90.6962 116.241 90.6841 116.217 90.6841 116.201L90.4905 116.201L90.4905 115.789C90.5228 115.789 90.5994 115.793 90.7204 115.801C90.8414 115.81 90.9261 115.822 90.9745 115.838L91.0713 115.959C91.0874 115.959 91.1116 115.963 91.1439 115.971C91.1761 115.979 91.2003 115.983 91.2164 115.983C91.2971 115.983 91.3657 115.959 91.4221 115.91C91.4786 115.862 91.531 115.81 91.5794 115.753C91.6278 115.697 91.6802 115.64 91.7367 115.584C91.7931 115.527 91.8617 115.491 91.9423 115.475C91.9907 115.475 92.0916 115.483 92.2448 115.499C92.398 115.515 92.4989 115.523 92.5473 115.523L92.5473 115.136C92.4343 115.136 92.3577 115.14 92.3174 115.148C92.2771 115.156 92.2529 115.168 92.2448 115.184C92.2367 115.201 92.2287 115.213 92.2206 115.221C92.2125 115.229 92.1843 115.233 92.1359 115.233C92.0069 115.233 91.9262 115.164 91.8939 115.027C91.8617 114.89 91.8375 114.789 91.8214 114.725L91.8214 114.676L91.8214 114.628C91.8375 114.612 91.8577 114.576 91.8818 114.519C91.906 114.463 91.9262 114.418 91.9423 114.386C91.9746 114.321 92.019 114.245 92.0754 114.156C92.1319 114.067 92.1682 114.015 92.1843 113.999C92.2166 113.983 92.3174 113.963 92.4868 113.938C92.6561 113.914 92.757 113.894 92.7892 113.878C92.8215 113.862 92.8618 113.765 92.9102 113.587C92.9586 113.41 92.9989 113.305 93.0312 113.273C93.0473 113.257 93.0917 113.237 93.1643 113.212C93.2369 113.188 93.2732 113.168 93.2732 113.152C93.3054 113.12 93.3498 113.043 93.4062 112.922C93.4627 112.801 93.499 112.716 93.5151 112.668L93.5877 112.668C93.7329 112.668 93.866 112.704 93.987 112.777C94.1079 112.849 94.2289 112.926 94.3499 113.007C94.4709 113.087 94.5919 113.164 94.7129 113.237C94.8338 113.309 94.975 113.346 95.1363 113.346C95.1363 113.458 95.104 113.596 95.0395 113.757C94.975 113.918 94.8943 114.084 94.7976 114.253C94.7008 114.422 94.604 114.584 94.5072 114.737C94.4104 114.89 94.3298 115.015 94.2652 115.112C94.2007 115.193 94.112 115.245 93.9991 115.269C93.8861 115.293 93.8136 115.362 93.7813 115.475L93.7813 115.717C93.62 116.039 93.3941 116.378 93.1038 116.733C92.8134 117.088 92.5473 117.403 92.3053 117.677C92.273 117.709 92.2166 117.769 92.1359 117.858C92.0553 117.947 91.9706 118.036 91.8818 118.124C91.7931 118.213 91.7084 118.298 91.6278 118.378C91.5471 118.459 91.4907 118.507 91.4584 118.524C91.4423 118.524 91.4019 118.544 91.3374 118.584C91.2729 118.624 91.2326 118.645 91.2164 118.645C91.2003 118.661 91.1761 118.681 91.1439 118.705C91.1116 118.729 91.0874 118.758 91.0713 118.79C91.0713 118.806 91.0511 118.846 91.0108 118.911C90.9704 118.975 90.9341 119.052 90.9019 119.141C90.8696 119.229 90.8333 119.31 90.793 119.383C90.7527 119.455 90.7325 119.5 90.7325 119.516C90.7002 119.532 90.5954 119.548 90.4179 119.564C90.2405 119.58 90.1357 119.596 90.1034 119.612C90.0873 119.629 90.051 119.689 89.9945 119.794C89.938 119.899 89.8937 119.959 89.8614 119.975C89.8292 119.992 89.805 120 89.7888 120L89.692 120C89.563 120 89.4501 119.983 89.3533 119.951C89.2565 119.919 89.1517 119.903 89.0387 119.903C89.0387 120 89.0629 120.072 89.1113 120.121C89.1597 120.169 89.2081 120.25 89.2565 120.363C89.2081 120.346 89.1396 120.355 89.0508 120.387C88.9621 120.419 88.9016 120.443 88.8694 120.459C88.8532 120.492 88.8532 120.556 88.8694 120.653C88.8855 120.75 88.8855 120.814 88.8694 120.847C88.8694 120.863 88.8532 120.887 88.821 120.919L88.7726 120.967L88.7726 121.088C88.7242 121.169 88.6637 121.209 88.5911 121.209C88.5185 121.209 88.4419 121.205 88.3612 121.197C88.2806 121.189 88.208 121.189 88.1435 121.197C88.0789 121.205 88.0386 121.25 88.0225 121.33C88.0547 121.363 88.1394 121.407 88.2765 121.464C88.4137 121.52 88.4983 121.556 88.5306 121.572C88.5467 121.572 88.583 121.568 88.6395 121.56C88.6959 121.552 88.7403 121.548 88.7726 121.548L88.7726 121.306C88.9178 121.306 88.9984 121.371 89.0145 121.5C89.0307 121.629 89.0629 121.734 89.1113 121.814C89.1275 121.831 89.1517 121.826 89.1839 121.802C89.2162 121.778 89.2404 121.766 89.2565 121.766L89.2565 121.548C89.4017 121.548 89.5469 121.585 89.692 121.657C89.8372 121.73 89.8937 121.871 89.8614 122.081C89.9421 122.064 89.9864 122.028 89.9945 121.972C90.0026 121.915 90.0026 121.851 89.9945 121.778C89.9864 121.705 89.9824 121.641 89.9824 121.585C89.9824 121.528 90.0227 121.484 90.1034 121.451C90.1357 121.451 90.2002 121.443 90.297 121.427C90.3938 121.411 90.4946 121.395 90.5994 121.379C90.7043 121.363 90.8011 121.351 90.8898 121.343C90.9785 121.334 91.039 121.33 91.0713 121.33C91.1842 121.33 91.3899 121.322 91.6883 121.306C91.9867 121.29 92.2972 121.278 92.6198 121.27C92.9425 121.262 93.249 121.25 93.5393 121.234C93.8297 121.218 94.0313 121.209 94.1442 121.209L94.2652 121.088C94.2814 121.072 94.2975 121.016 94.3136 120.919C94.3298 120.822 94.3499 120.709 94.3741 120.58C94.3983 120.451 94.4225 120.322 94.4467 120.193C94.4709 120.064 94.4911 119.959 94.5072 119.879C94.5072 119.863 94.5072 119.81 94.5072 119.721C94.5072 119.633 94.5072 119.54 94.5072 119.443C94.5072 119.346 94.5072 119.258 94.5072 119.177C94.5072 119.096 94.5072 119.048 94.5072 119.032C94.5072 118.999 94.5233 118.935 94.5556 118.838C94.5878 118.741 94.612 118.677 94.6282 118.645C94.6927 118.387 94.7451 118.161 94.7855 117.967C94.8258 117.774 94.858 117.588 94.8822 117.411C94.9064 117.233 94.9266 117.048 94.9427 116.854C94.9589 116.66 94.9831 116.427 95.0153 116.152C95.0476 116.072 95.0919 116.027 95.1484 116.019C95.2049 116.011 95.2654 116.007 95.3299 116.007C95.3621 116.007 95.4186 116.011 95.4993 116.019C95.5799 116.027 95.6202 116.072 95.6202 116.152C95.6202 116.201 95.6283 116.185 95.6444 116.104C95.6606 116.023 95.6444 116.015 95.596 116.08C95.7251 116.273 95.8945 116.402 96.1042 116.467C96.3139 116.531 96.5236 116.564 96.7333 116.564C96.7333 116.596 96.7131 116.656 96.6728 116.745C96.6325 116.834 96.5962 116.894 96.5639 116.927C96.58 116.894 96.576 116.85 96.5518 116.794C96.5276 116.737 96.4994 116.701 96.4671 116.685C96.4349 116.669 96.3784 116.681 96.2978 116.721C96.2171 116.761 96.1606 116.781 96.1284 116.781C96.1284 116.798 96.1203 116.806 96.1042 116.806C96.088 116.806 96.08 116.814 96.08 116.83C96.1122 116.846 96.1768 116.902 96.2736 116.999C96.3703 117.096 96.4349 117.152 96.4671 117.169C96.4833 117.201 96.5357 117.298 96.6244 117.459C96.7131 117.62 96.7978 117.701 96.8785 117.701C96.8946 117.701 96.9067 117.697 96.9148 117.689C96.9228 117.681 96.9349 117.677 96.9511 117.677C96.9027 117.596 96.8623 117.528 96.8301 117.471C96.7978 117.415 96.7817 117.338 96.7817 117.241C96.8139 117.241 96.8825 117.249 96.9874 117.265C97.0922 117.282 97.1608 117.298 97.193 117.314C97.2898 117.346 97.3503 117.423 97.3745 117.544C97.3987 117.665 97.4592 117.749 97.556 117.798C97.5882 117.798 97.6487 117.814 97.7375 117.846C97.8262 117.878 97.8867 117.903 97.9189 117.919L97.9189 117.943C97.9189 117.959 97.927 117.975 97.9431 117.991L97.9189 118.04C97.8867 118.056 97.8262 118.08 97.7375 118.112C97.6487 118.145 97.5882 118.161 97.556 118.161C97.556 118.241 97.5963 118.282 97.677 118.282C97.7254 118.282 97.8342 118.29 98.0036 118.306C98.173 118.322 98.2899 118.33 98.3545 118.33C98.3545 118.362 98.3464 118.435 98.3303 118.548C98.3141 118.661 98.298 118.741 98.2819 118.79C98.2658 118.887 98.2133 118.923 98.1246 118.899C98.0359 118.874 97.9673 118.919 97.9189 119.032C97.8705 119.129 97.8383 119.197 97.8221 119.237C97.806 119.278 97.7173 119.322 97.556 119.371L98.1851 119.371C98.1851 119.596 98.1206 119.802 97.9915 119.988C97.8625 120.173 97.7979 120.379 97.7979 120.605C97.7979 120.685 97.8181 120.806 97.8584 120.967C97.8988 121.129 97.9593 121.209 98.0399 121.209C98.056 121.209 98.0964 121.189 98.1609 121.149C98.2254 121.109 98.2658 121.088 98.2819 121.088C98.54 121.008 98.7336 120.967 98.8626 120.967C98.9917 120.967 99.2094 120.967 99.5159 120.967L100.242 120.967C100.274 120.967 100.339 120.984 100.435 121.016C100.532 121.048 100.589 121.072 100.605 121.088C100.653 121.105 100.742 121.129 100.871 121.161C101 121.193 101.081 121.209 101.113 121.209L101.161 121.209L101.21 121.209C101.242 121.209 101.306 121.189 101.403 121.149C101.5 121.109 101.565 121.088 101.597 121.088C101.645 121.088 101.746 121.105 101.899 121.137C102.053 121.169 102.153 121.193 102.202 121.209C102.234 121.242 102.282 121.286 102.347 121.343C102.411 121.399 102.444 121.435 102.444 121.451C102.444 121.484 102.407 121.548 102.335 121.645C102.262 121.742 102.218 121.798 102.202 121.814L102.202 121.887C102.202 121.968 102.25 122.032 102.347 122.081C102.444 122.129 102.516 122.161 102.565 122.177C102.387 122.323 102.299 122.484 102.299 122.661L102.299 122.758C102.299 122.774 102.307 122.79 102.323 122.806C102.323 122.839 102.359 122.919 102.432 123.048C102.504 123.177 102.549 123.258 102.565 123.29L102.565 123.363L102.565 123.411C102.436 123.218 102.278 123.105 102.093 123.073C101.907 123.04 101.718 123.024 101.524 123.024C101.492 123.024 101.423 123.028 101.319 123.036C101.214 123.044 101.145 123.048 101.113 123.048C101.032 123.097 100.968 123.19 100.919 123.327C100.871 123.464 100.806 123.532 100.726 123.532L100.629 123.484C100.597 123.468 100.568 123.456 100.544 123.448C100.52 123.44 100.5 123.427 100.484 123.411L100.363 123.29L100.29 123.29C100.274 123.29 100.25 123.298 100.218 123.315C100.218 123.508 100.189 123.625 100.133 123.665C100.076 123.706 100.012 123.73 99.9394 123.738C99.8668 123.746 99.8022 123.762 99.7458 123.786C99.6893 123.811 99.6611 123.895 99.6611 124.04C99.645 124.04 99.6409 124.036 99.649 124.028C99.6571 124.02 99.653 124.016 99.6369 124.016C99.5562 123.984 99.4232 123.924 99.2377 123.835C99.0521 123.746 98.9433 123.686 98.911 123.653C98.8787 123.637 98.8465 123.601 98.8142 123.544C98.7819 123.488 98.7658 123.444 98.7658 123.411L97.677 123.411C97.6931 123.25 97.6084 123.149 97.4229 123.109C97.2374 123.069 97.0962 123.048 96.9995 123.048L96.9511 123.048C96.9349 123.065 96.9107 123.101 96.8785 123.157C96.8462 123.214 96.822 123.258 96.8059 123.29L96.08 123.29C96.0477 123.29 96.0235 123.319 96.0074 123.375C95.9913 123.432 95.9792 123.496 95.9711 123.569C95.963 123.641 95.959 123.71 95.959 123.774C95.959 123.839 95.959 123.871 95.959 123.871L95.959 124.137C95.9751 124.17 96.0195 124.234 96.0921 124.331C96.1647 124.428 96.209 124.492 96.2252 124.524C96.2252 124.541 96.2574 124.621 96.3219 124.766C96.3865 124.912 96.4349 124.992 96.4671 125.008C96.4994 125.024 96.58 125.024 96.7091 125.008C96.8381 124.992 96.9188 124.992 96.9511 125.008C96.9672 125.008 96.9914 125.024 97.0237 125.057C97.0398 125.073 97.0478 125.089 97.0478 125.105C96.9833 125.202 96.9027 125.266 96.8059 125.299C96.7091 125.331 96.6163 125.355 96.5276 125.371C96.4389 125.387 96.3623 125.416 96.2978 125.456C96.2332 125.496 96.201 125.573 96.201 125.686C96.201 125.767 96.201 125.863 96.201 125.976C96.201 126.089 96.209 126.206 96.2252 126.327C96.2413 126.448 96.2695 126.557 96.3098 126.654C96.3502 126.751 96.4026 126.807 96.4671 126.823L96.2736 126.92C96.1445 126.984 96.08 127.033 96.08 127.065C96.08 127.081 96.1001 127.122 96.1405 127.186C96.1808 127.251 96.209 127.291 96.2252 127.307L96.2252 127.38L96.2252 127.452C96.1445 127.565 96.0155 127.63 95.838 127.646C95.6606 127.662 95.5396 127.678 95.4751 127.694C95.5235 127.791 95.6162 127.851 95.7533 127.876C95.8904 127.9 96.0356 127.928 96.1889 127.96C96.3421 127.993 96.4752 128.041 96.5881 128.106C96.701 128.17 96.7575 128.275 96.7575 128.42L96.2494 128.42C96.2332 128.436 96.2252 128.452 96.2252 128.468C96.2252 128.517 96.2252 128.541 96.2252 128.541C96.2252 128.557 96.2615 128.581 96.334 128.614C96.4066 128.646 96.451 128.662 96.4671 128.662C96.4833 128.678 96.4994 128.739 96.5155 128.844C96.5317 128.948 96.5478 129.009 96.5639 129.025C96.5639 129.025 96.6042 129.025 96.6849 129.025L96.8059 129.025C96.8381 129.057 96.8865 129.138 96.9511 129.267C97.0156 129.396 97.0478 129.477 97.0478 129.509C97.0317 129.59 97.0035 129.634 96.9632 129.642C96.9228 129.65 96.8704 129.654 96.8059 129.654C96.6446 129.654 96.5317 129.573 96.4671 129.412C96.3865 129.444 96.3421 129.477 96.334 129.509C96.326 129.541 96.3219 129.582 96.3219 129.63L95.717 130.017ZM95.717 124.766L95.838 124.766L95.838 124.621L95.717 124.621L95.717 124.766ZM96.4671 124.089C96.4671 123.928 96.5478 123.77 96.7091 123.617C96.8704 123.464 96.9833 123.355 97.0478 123.29L97.1204 123.266C97.1204 123.266 97.1366 123.274 97.1688 123.29L97.193 123.29C97.2092 123.307 97.2334 123.359 97.2656 123.448C97.2979 123.536 97.314 123.605 97.314 123.653C97.314 123.686 97.318 123.706 97.3261 123.714C97.3342 123.722 97.3382 123.742 97.3382 123.774L97.3382 123.847L96.6849 123.847L96.6849 123.944C96.6849 123.976 96.693 124 96.7091 124.016C96.693 124.032 96.6728 124.073 96.6486 124.137C96.6244 124.202 96.5962 124.25 96.5639 124.282C96.5478 124.266 96.5276 124.242 96.5034 124.21C96.4792 124.178 96.4671 124.153 96.4671 124.137L96.4671 124.089ZM86.1835 123.508C86.119 123.508 86.0585 123.532 86.002 123.581C85.9456 123.629 85.9174 123.694 85.9174 123.774L86.1835 123.774L86.1835 123.508ZM99.3949 123.411C99.3949 123.444 99.4111 123.472 99.4433 123.496C99.4756 123.52 99.4998 123.532 99.5159 123.532C99.5482 123.532 99.6087 123.52 99.6974 123.496C99.7861 123.472 99.8466 123.444 99.8789 123.411C99.8466 123.395 99.8022 123.371 99.7458 123.339C99.6893 123.307 99.653 123.29 99.6369 123.29L99.5643 123.29L99.5159 123.29C99.4998 123.29 99.4756 123.307 99.4433 123.339C99.4111 123.371 99.3949 123.395 99.3949 123.411ZM99.153 123.411L99.2498 123.29L99.153 123.169L99.0078 123.29L99.153 123.411ZM97.6528 122.806C97.6528 122.968 97.7415 123.048 97.9189 123.048C97.9512 123.048 97.9794 123.032 98.0036 123C98.0278 122.968 98.0399 122.935 98.0399 122.903C98.0077 122.855 97.9593 122.81 97.8947 122.77C97.8302 122.73 97.7576 122.694 97.677 122.661C97.677 122.677 97.6729 122.702 97.6649 122.734C97.6568 122.766 97.6528 122.79 97.6528 122.806ZM99.3949 122.903C99.3143 122.903 99.2739 122.948 99.2739 123.036C99.2739 123.125 99.3143 123.169 99.3949 123.169C99.4595 123.169 99.4917 123.125 99.4917 123.036C99.4917 122.948 99.4595 122.903 99.3949 122.903ZM98.79 122.395C98.6287 122.395 98.4997 122.468 98.4029 122.613C98.3061 122.758 98.2577 122.903 98.2577 123.048C98.4835 123.048 98.6287 122.988 98.6932 122.867C98.7578 122.746 98.79 122.589 98.79 122.395ZM96.8059 121.935C96.7898 121.903 96.7615 121.911 96.7212 121.96C96.6809 122.008 96.6768 122.048 96.7091 122.081C96.7414 122.097 96.7736 122.089 96.8059 122.056C96.8381 122.024 96.8381 121.984 96.8059 121.935ZM89.4985 121.935L89.6195 121.935L89.6195 121.814L89.4985 121.814L89.4985 121.935ZM95.9348 120.943C95.9348 121.072 95.955 121.173 95.9953 121.246C96.0356 121.318 96.1203 121.355 96.2494 121.355C96.2494 121.242 96.2292 121.145 96.1889 121.064C96.1485 120.984 96.0638 120.943 95.9348 120.943ZM88.579 120.435C88.4338 120.435 88.3451 120.5 88.3128 120.629C88.2806 120.758 88.2644 120.879 88.2644 120.992C88.4258 120.992 88.5185 120.931 88.5427 120.81C88.5669 120.689 88.579 120.564 88.579 120.435ZM86.1835 120.726C86.1351 120.726 86.1109 120.766 86.1109 120.847C86.1109 120.927 86.1351 120.967 86.1835 120.967C86.2642 120.967 86.3045 120.927 86.3045 120.847C86.3045 120.766 86.2642 120.726 86.1835 120.726ZM87.0546 120.459C86.9901 120.459 86.9578 120.504 86.9578 120.592C86.9578 120.681 86.9901 120.726 87.0546 120.726C87.1191 120.726 87.1514 120.681 87.1514 120.592C87.1514 120.504 87.1191 120.459 87.0546 120.459ZM87.1756 120.048C87.1756 120.145 87.2159 120.225 87.2966 120.29C87.3772 120.355 87.4579 120.387 87.5385 120.387L87.6111 120.387C87.6273 120.387 87.6434 120.379 87.6595 120.363C87.5305 120.169 87.3692 120.04 87.1756 119.975L87.1756 120.048ZM97.7979 119.758C97.7334 119.758 97.7012 119.794 97.7012 119.867C97.7012 119.939 97.7334 119.975 97.7979 119.975C97.8625 119.975 97.8947 119.939 97.8947 119.867C97.8947 119.794 97.8625 119.758 97.7979 119.758ZM88.9903 118.862C88.9903 118.991 89.0105 119.149 89.0508 119.334C89.0912 119.52 89.2081 119.612 89.4017 119.612C89.4017 119.483 89.3775 119.326 89.3291 119.141C89.2807 118.955 89.1678 118.862 88.9903 118.862ZM95.3541 118.887C95.2896 118.887 95.2573 118.927 95.2573 119.008C95.2573 119.088 95.2896 119.129 95.3541 119.129C95.4186 119.129 95.4509 119.088 95.4509 119.008C95.4509 118.927 95.4186 118.887 95.3541 118.887ZM88.6274 118.645C88.6435 118.612 88.6274 118.596 88.579 118.596C88.5306 118.596 88.5145 118.612 88.5306 118.645C88.5467 118.677 88.5669 118.693 88.5911 118.693C88.6153 118.693 88.6274 118.677 88.6274 118.645ZM89.3775 118.524L89.4985 118.524L89.4985 118.403L89.3775 118.524ZM95.2331 118.524L95.3541 118.524L95.3541 118.403L95.2331 118.524ZM88.3854 118.378C88.5629 118.378 88.6718 118.314 88.7121 118.185C88.7524 118.056 88.7726 117.927 88.7726 117.798L88.3854 117.798L88.3854 118.378ZM89.1113 118.282C89.1436 118.249 89.1073 118.233 89.0024 118.233C88.8976 118.233 88.8532 118.249 88.8694 118.282C88.9016 118.314 88.95 118.33 89.0145 118.33C89.0791 118.33 89.1113 118.314 89.1113 118.282ZM89.4985 117.556L89.8614 117.556L89.8614 117.435L89.4985 117.435L89.4985 117.556ZM92.1843 114.967C92.2004 114.934 92.1843 114.918 92.1359 114.918C92.0875 114.918 92.0633 114.934 92.0633 114.967C92.0795 115.015 92.0996 115.039 92.1238 115.039C92.148 115.039 92.1682 115.015 92.1843 114.967ZM92.3053 114.241L92.5473 114.241L92.3053 114.144L92.3053 114.241ZM93.4183 113.394L93.6603 113.394L93.4183 113.273L93.4183 113.394Z"/>
<path d="M110.671 125.879L109.896 125.879C109.848 125.702 109.779 125.585 109.691 125.529C109.602 125.472 109.497 125.436 109.376 125.42C109.255 125.404 109.126 125.395 108.989 125.395C108.852 125.395 108.719 125.363 108.59 125.299C108.509 125.25 108.453 125.154 108.42 125.008C108.388 124.863 108.307 124.791 108.178 124.791C108.162 124.791 108.146 124.799 108.13 124.815C108.033 124.912 107.953 124.972 107.888 124.996C107.823 125.02 107.763 125.037 107.707 125.045C107.65 125.053 107.594 125.073 107.537 125.105C107.481 125.137 107.42 125.202 107.356 125.299L107.356 124.839C107.34 124.823 107.315 124.815 107.283 124.815L107.162 124.815C107.13 124.831 107.053 124.871 106.932 124.936C106.811 125 106.735 125.041 106.702 125.057L106.63 125.057L106.581 125.057C106.565 125.024 106.529 124.944 106.472 124.815C106.416 124.686 106.38 124.605 106.364 124.573C106.315 124.476 106.263 124.327 106.206 124.125C106.15 123.924 106.085 123.726 106.013 123.532C105.94 123.339 105.847 123.194 105.734 123.097C105.622 123 105.468 123.016 105.275 123.145C105.259 123.113 105.238 123.056 105.214 122.976C105.19 122.895 105.17 122.839 105.154 122.806C105.154 122.774 105.158 122.694 105.166 122.564C105.174 122.435 105.17 122.355 105.154 122.323C105.138 122.29 105.061 122.266 104.924 122.25C104.787 122.234 104.71 122.218 104.694 122.202C104.613 122.153 104.545 122.064 104.488 121.935C104.432 121.806 104.392 121.665 104.367 121.512C104.343 121.359 104.327 121.209 104.319 121.064C104.311 120.919 104.307 120.798 104.307 120.701C104.307 120.588 104.339 120.48 104.404 120.375C104.468 120.27 104.541 120.165 104.621 120.06C104.702 119.955 104.775 119.85 104.839 119.746C104.904 119.641 104.936 119.532 104.936 119.419L104.936 119.371C104.855 119.403 104.787 119.435 104.73 119.467C104.674 119.5 104.605 119.516 104.525 119.516C104.525 119.354 104.585 119.137 104.706 118.862C104.827 118.588 104.98 118.286 105.166 117.955C105.351 117.624 105.561 117.29 105.795 116.951C106.029 116.612 106.259 116.306 106.485 116.031C106.71 115.757 106.916 115.531 107.102 115.354C107.287 115.176 107.428 115.088 107.525 115.088C107.606 115.088 107.654 115.124 107.67 115.197C107.686 115.269 107.702 115.346 107.719 115.426C107.735 115.507 107.771 115.576 107.827 115.632C107.884 115.689 107.985 115.709 108.13 115.693L108.13 114.822C108.211 114.822 108.271 114.85 108.311 114.906C108.352 114.963 108.428 114.991 108.541 114.991C108.654 114.991 108.739 114.967 108.795 114.918C108.852 114.87 108.9 114.817 108.941 114.761C108.981 114.705 109.029 114.652 109.086 114.604C109.142 114.555 109.219 114.523 109.316 114.507C109.445 114.491 109.562 114.483 109.666 114.483C109.771 114.483 109.872 114.475 109.969 114.459C110.066 114.442 110.154 114.414 110.235 114.374C110.316 114.334 110.404 114.257 110.501 114.144C110.598 114.015 110.699 113.926 110.804 113.878C110.909 113.829 111.021 113.797 111.142 113.781C111.263 113.765 111.384 113.753 111.505 113.745C111.626 113.737 111.759 113.708 111.905 113.66C111.937 113.644 111.981 113.604 112.038 113.539C112.094 113.475 112.13 113.434 112.147 113.418C112.147 113.402 112.171 113.394 112.219 113.394C112.268 113.394 112.308 113.394 112.34 113.394C112.501 113.394 112.61 113.467 112.667 113.612C112.723 113.757 112.752 113.922 112.752 114.108C112.752 114.293 112.735 114.471 112.703 114.64C112.671 114.809 112.655 114.918 112.655 114.967C112.913 114.967 113.094 114.914 113.199 114.809C113.304 114.705 113.469 114.563 113.695 114.386L113.744 114.386L113.816 114.386C113.897 114.386 113.994 114.402 114.107 114.434C114.219 114.467 114.276 114.491 114.276 114.507C114.308 114.523 114.316 114.576 114.3 114.664C114.284 114.753 114.276 114.813 114.276 114.846C114.324 114.959 114.385 115.039 114.457 115.088C114.53 115.136 114.603 115.189 114.675 115.245C114.748 115.301 114.816 115.378 114.881 115.475C114.945 115.572 114.986 115.725 115.002 115.935L115.123 115.935C115.139 115.806 115.179 115.632 115.244 115.414C115.308 115.197 115.429 115.088 115.607 115.088C115.639 115.088 115.695 115.1 115.776 115.124C115.857 115.148 115.913 115.176 115.945 115.209C115.929 115.225 115.905 115.261 115.873 115.318C115.841 115.374 115.825 115.418 115.825 115.451L115.825 115.499C115.825 115.741 115.893 115.943 116.03 116.104C116.167 116.265 116.373 116.346 116.647 116.346C116.647 116.394 116.647 116.471 116.647 116.576C116.647 116.681 116.647 116.79 116.647 116.902C116.647 117.015 116.651 117.124 116.659 117.229C116.667 117.334 116.671 117.411 116.671 117.459C116.671 117.491 116.675 117.572 116.683 117.701C116.692 117.83 116.7 117.967 116.708 118.112C116.716 118.257 116.728 118.395 116.744 118.524C116.76 118.653 116.768 118.733 116.768 118.766C116.768 118.782 116.764 118.822 116.756 118.887C116.748 118.951 116.752 118.991 116.768 119.008C116.8 119.056 116.845 119.112 116.901 119.177C116.958 119.241 116.994 119.258 117.01 119.225L117.615 118.766L117.615 118.814C117.615 118.991 117.575 119.185 117.494 119.395C117.413 119.604 117.373 119.806 117.373 120L117.373 120.193L117.736 119.951L117.736 120L117.736 120.072C117.72 120.153 117.7 120.31 117.676 120.544C117.651 120.778 117.631 120.935 117.615 121.016C117.599 121.016 117.575 121.032 117.542 121.064C117.51 121.097 117.494 121.121 117.494 121.137C117.478 121.137 117.47 121.145 117.47 121.161L117.47 121.209C117.47 121.226 117.478 121.242 117.494 121.258C117.51 121.274 117.551 121.294 117.615 121.318C117.68 121.343 117.72 121.363 117.736 121.379C117.768 121.411 117.784 121.443 117.784 121.476L117.784 121.548L117.204 121.548C117.204 121.822 117.212 122.081 117.228 122.323C117.244 122.564 117.212 122.806 117.131 123.048C117.131 123.065 117.115 123.085 117.083 123.109C117.05 123.133 117.026 123.145 117.01 123.145C116.978 123.145 116.934 123.133 116.877 123.109C116.821 123.085 116.784 123.065 116.768 123.048C116.688 123.145 116.647 123.258 116.647 123.387L116.647 123.46C116.647 123.476 116.655 123.492 116.671 123.508L116.889 123.387L116.889 123.46C116.889 123.718 116.772 123.948 116.538 124.149C116.304 124.351 116.066 124.452 115.825 124.452C115.808 124.452 115.752 124.432 115.655 124.391C115.558 124.351 115.494 124.339 115.462 124.355C115.445 124.355 115.405 124.387 115.341 124.452C115.276 124.516 115.244 124.557 115.244 124.573L115.171 124.597L115.123 124.573C115.107 124.557 115.082 124.537 115.05 124.512C115.018 124.488 115.002 124.468 115.002 124.452C114.728 124.597 114.55 124.746 114.469 124.899C114.389 125.053 114.328 125.198 114.288 125.335C114.248 125.472 114.191 125.581 114.119 125.662C114.046 125.742 113.881 125.783 113.623 125.783L113.574 125.783C113.542 125.75 113.445 125.682 113.284 125.577C113.123 125.472 113.018 125.412 112.969 125.395L112.848 125.395C112.752 125.395 112.679 125.428 112.631 125.492C112.582 125.557 112.546 125.629 112.522 125.71C112.497 125.791 112.473 125.863 112.449 125.928C112.425 125.992 112.389 126.025 112.34 126.025C112.227 126.025 112.122 125.996 112.026 125.94C111.929 125.883 111.816 125.855 111.687 125.855C111.655 125.855 111.594 125.859 111.505 125.867C111.417 125.875 111.356 125.879 111.324 125.879C111.324 125.912 111.308 125.972 111.276 126.061C111.243 126.15 111.219 126.21 111.203 126.242C111.203 126.259 111.195 126.267 111.179 126.267L111.155 126.267C111.106 126.267 111.082 126.259 111.082 126.242L110.671 125.541L110.671 125.879ZM113.816 125.395C113.752 125.395 113.719 125.436 113.719 125.516C113.719 125.597 113.752 125.637 113.816 125.637C113.881 125.637 113.913 125.597 113.913 125.516C113.913 125.436 113.881 125.395 113.816 125.395ZM111.445 124.815L111.445 124.694L111.324 124.694L111.445 124.815ZM107.162 124.234C107.098 124.266 107.037 124.315 106.981 124.379C106.924 124.444 106.896 124.516 106.896 124.597C107.089 124.597 107.186 124.516 107.186 124.355C107.186 124.339 107.182 124.327 107.174 124.319C107.166 124.311 107.162 124.299 107.162 124.282L107.162 124.234ZM114.276 124.355C114.228 124.355 114.203 124.391 114.203 124.464C114.203 124.537 114.228 124.573 114.276 124.573C114.34 124.573 114.373 124.537 114.373 124.464C114.373 124.391 114.34 124.355 114.276 124.355ZM107.573 122.419C107.606 122.419 107.646 122.419 107.694 122.419C107.743 122.419 107.767 122.427 107.767 122.443C107.799 122.46 107.876 122.536 107.997 122.673C108.118 122.81 108.194 122.895 108.227 122.927C108.259 122.927 108.344 122.923 108.481 122.915C108.618 122.907 108.686 122.911 108.686 122.927C108.816 122.96 108.965 123.02 109.134 123.109C109.303 123.198 109.473 123.29 109.642 123.387C109.812 123.484 109.977 123.569 110.138 123.641C110.3 123.714 110.437 123.75 110.55 123.75L110.622 123.75L110.719 123.702C110.751 123.686 110.775 123.669 110.792 123.653C110.808 123.637 110.824 123.629 110.84 123.629C110.856 123.629 110.88 123.649 110.913 123.69C110.945 123.73 110.969 123.75 110.985 123.75C111.114 123.75 111.251 123.698 111.397 123.593C111.542 123.488 111.679 123.419 111.808 123.387C111.824 123.387 111.88 123.387 111.977 123.387C112.074 123.387 112.175 123.387 112.28 123.387C112.385 123.387 112.481 123.387 112.57 123.387C112.659 123.387 112.719 123.387 112.752 123.387C112.913 123.355 113.07 123.29 113.223 123.194C113.377 123.097 113.53 123 113.683 122.903C113.836 122.806 113.994 122.73 114.155 122.673C114.316 122.617 114.486 122.621 114.663 122.685C114.711 122.524 114.784 122.391 114.881 122.286C114.978 122.181 115.082 122.077 115.195 121.972C115.308 121.867 115.405 121.754 115.486 121.633C115.566 121.512 115.607 121.363 115.607 121.185C115.607 121.137 115.603 121.084 115.595 121.028C115.587 120.972 115.542 120.927 115.462 120.895C115.478 120.847 115.486 120.766 115.486 120.653C115.486 120.54 115.486 120.423 115.486 120.302C115.486 120.181 115.486 120.064 115.486 119.951C115.486 119.838 115.478 119.758 115.462 119.709C115.462 119.693 115.445 119.641 115.413 119.552C115.381 119.463 115.345 119.375 115.304 119.286C115.264 119.197 115.224 119.112 115.183 119.032C115.143 118.951 115.123 118.903 115.123 118.887C114.994 118.516 114.832 118.249 114.639 118.088C114.445 117.927 114.236 117.802 114.01 117.713C113.784 117.624 113.542 117.536 113.284 117.447C113.026 117.358 112.768 117.209 112.51 116.999C112.51 116.999 112.485 116.975 112.437 116.927C112.421 116.911 112.405 116.886 112.389 116.854C112.356 116.838 112.312 116.818 112.255 116.794C112.199 116.769 112.163 116.757 112.147 116.757C112.13 116.757 112.09 116.773 112.026 116.806C111.961 116.838 111.921 116.854 111.905 116.854C111.856 116.854 111.824 116.834 111.808 116.794C111.792 116.753 111.784 116.705 111.784 116.648C111.784 116.592 111.78 116.539 111.772 116.491C111.763 116.443 111.735 116.41 111.687 116.394C111.622 116.701 111.501 116.89 111.324 116.963C111.146 117.036 110.913 117.128 110.622 117.241C110.606 117.209 110.586 117.177 110.562 117.144C110.538 117.112 110.517 117.096 110.501 117.096L110.477 117.096C110.461 117.096 110.445 117.088 110.429 117.072C110.413 117.072 110.396 117.08 110.38 117.096C110.154 117.37 109.921 117.588 109.679 117.749C109.437 117.911 109.154 118.056 108.832 118.185C108.799 118.201 108.727 118.278 108.614 118.415C108.501 118.552 108.384 118.701 108.263 118.862C108.142 119.024 108.029 119.169 107.924 119.298C107.819 119.427 107.751 119.491 107.719 119.491C107.622 119.491 107.573 119.447 107.573 119.358C107.573 119.27 107.525 119.225 107.428 119.225C107.348 119.225 107.223 119.258 107.053 119.322C106.884 119.387 106.799 119.459 106.799 119.54L106.799 119.588C106.799 119.604 106.807 119.612 106.823 119.612C106.839 119.645 106.88 119.693 106.944 119.758C107.009 119.822 107.049 119.854 107.065 119.854C107.098 119.854 107.158 119.822 107.247 119.758C107.335 119.693 107.388 119.645 107.404 119.612L107.404 119.709C107.404 119.838 107.388 119.931 107.356 119.988C107.323 120.044 107.283 120.092 107.235 120.133C107.186 120.173 107.134 120.213 107.077 120.254C107.021 120.294 106.969 120.355 106.92 120.435C106.952 120.435 106.997 120.447 107.053 120.471C107.11 120.496 107.146 120.516 107.162 120.532L107.162 120.556C107.162 120.572 107.166 120.58 107.174 120.58C107.182 120.58 107.186 120.588 107.186 120.605C107.186 120.701 107.134 120.851 107.029 121.052C106.924 121.254 106.856 121.403 106.823 121.5L106.823 121.548C106.823 121.726 106.876 121.895 106.981 122.056C107.085 122.218 107.146 122.427 107.162 122.685L107.235 122.685C107.331 122.685 107.38 122.641 107.38 122.552C107.38 122.464 107.444 122.419 107.573 122.419ZM105.928 122.661C105.912 122.661 105.904 122.665 105.904 122.673C105.904 122.681 105.896 122.685 105.88 122.685L105.855 122.685L105.734 122.806L105.807 122.806L105.855 122.806C105.936 122.774 105.976 122.734 105.976 122.685L105.928 122.661ZM116.889 119.854C116.792 119.887 116.744 119.959 116.744 120.072L116.889 120.072L116.889 119.854ZM107.162 118.887C107.13 118.87 107.114 118.887 107.114 118.935C107.114 118.983 107.13 119.008 107.162 119.008C107.21 118.991 107.235 118.971 107.235 118.947C107.235 118.923 107.21 118.903 107.162 118.887ZM107.065 118.766C107.162 118.701 107.21 118.612 107.21 118.499C107.065 118.499 106.969 118.556 106.92 118.669L107.065 118.766ZM107.525 118.766L107.525 118.524L107.404 118.669L107.525 118.766ZM107.525 118.185L107.646 118.185L107.646 118.04L107.525 118.04L107.525 118.185ZM108.953 117.967C109.114 117.967 109.195 117.878 109.195 117.701L108.953 117.701L108.953 117.967ZM108.227 116.927C108.049 116.927 107.916 116.991 107.827 117.12C107.739 117.249 107.694 117.403 107.694 117.58L108.227 117.58L108.227 116.927ZM116.066 117.241C116.083 117.193 116.066 117.169 116.018 117.169C115.97 117.169 115.945 117.193 115.945 117.241C115.962 117.273 115.986 117.29 116.018 117.29C116.05 117.29 116.066 117.273 116.066 117.241ZM112.752 115.693C112.719 115.676 112.703 115.693 112.703 115.741C112.703 115.789 112.719 115.814 112.752 115.814C112.784 115.781 112.8 115.753 112.8 115.729C112.8 115.705 112.784 115.693 112.752 115.693ZM112.147 114.749C112.13 114.717 112.098 114.717 112.05 114.749C112.001 114.781 112.001 114.813 112.05 114.846C112.082 114.862 112.114 114.858 112.147 114.834C112.179 114.809 112.179 114.781 112.147 114.749Z"/>
<path d="M130.851 130.017C130.786 129.872 130.669 129.799 130.5 129.799C130.33 129.799 130.205 129.751 130.125 129.654C130.109 129.622 130.052 129.529 129.955 129.376C129.859 129.223 129.794 129.106 129.762 129.025L129.399 128.299C129.399 128.235 129.403 128.114 129.411 127.936C129.419 127.759 129.423 127.573 129.423 127.38C129.423 127.186 129.419 127.005 129.411 126.835C129.403 126.666 129.399 126.541 129.399 126.46C129.399 126.444 129.391 126.408 129.375 126.351C129.359 126.295 129.346 126.234 129.338 126.17C129.33 126.105 129.318 126.041 129.302 125.976C129.286 125.912 129.278 125.871 129.278 125.855C129.278 125.823 129.278 125.754 129.278 125.65C129.278 125.545 129.278 125.432 129.278 125.311C129.278 125.19 129.278 125.077 129.278 124.972C129.278 124.867 129.278 124.799 129.278 124.766C129.262 124.686 129.242 124.537 129.217 124.319C129.193 124.101 129.173 123.96 129.157 123.895C129.076 123.895 128.927 123.879 128.709 123.847C128.491 123.815 128.358 123.79 128.31 123.774C128.068 123.726 127.907 123.673 127.826 123.617C127.745 123.561 127.693 123.496 127.669 123.423C127.645 123.351 127.616 123.27 127.584 123.181C127.552 123.093 127.463 123 127.318 122.903C127.253 122.935 127.201 123 127.161 123.097C127.12 123.194 127.092 123.302 127.076 123.423C127.06 123.544 127.052 123.669 127.052 123.799C127.052 123.928 127.052 124.024 127.052 124.089C126.842 124.089 126.636 124.04 126.435 123.944C126.233 123.847 126.044 123.75 125.866 123.653C125.85 123.653 125.826 123.633 125.794 123.593C125.761 123.553 125.737 123.532 125.721 123.532L125.697 123.532C125.681 123.532 125.664 123.524 125.648 123.508C125.616 123.508 125.552 123.544 125.455 123.617C125.358 123.69 125.285 123.742 125.237 123.774C125.14 123.823 125.035 123.859 124.922 123.883C124.81 123.907 124.753 123.992 124.753 124.137L122.309 124.137C122.293 124.121 122.257 124.097 122.2 124.065C122.144 124.032 122.1 124.016 122.067 124.016L121.22 124.016C121.188 124.016 121.083 123.976 120.906 123.895C120.728 123.815 120.624 123.774 120.591 123.774C120.559 123.758 120.478 123.754 120.349 123.762C120.22 123.77 120.14 123.774 120.107 123.774L119.865 123.532C119.865 123.516 119.849 123.512 119.817 123.52C119.785 123.528 119.761 123.532 119.744 123.532C119.631 123.419 119.563 123.278 119.539 123.109C119.515 122.94 119.454 122.79 119.357 122.661C119.277 122.532 119.236 122.431 119.236 122.359C119.236 122.286 119.236 122.145 119.236 121.935C119.236 121.903 119.24 121.826 119.248 121.705C119.256 121.585 119.26 121.5 119.26 121.451C119.373 121.355 119.486 121.306 119.599 121.306C119.857 121.306 120.027 121.375 120.107 121.512C120.188 121.649 120.253 121.718 120.301 121.718C120.446 121.718 120.575 121.665 120.688 121.56C120.801 121.455 120.894 121.33 120.966 121.185C121.039 121.04 121.103 120.891 121.16 120.738C121.216 120.584 121.269 120.459 121.317 120.363C121.333 120.346 121.378 120.31 121.45 120.254C121.523 120.197 121.559 120.153 121.559 120.121C121.591 120.072 121.591 119.983 121.559 119.854C121.527 119.725 121.575 119.645 121.704 119.612C121.737 119.612 121.793 119.621 121.874 119.637C121.954 119.653 122.011 119.661 122.043 119.661C122.043 119.532 122.023 119.443 121.983 119.395C121.942 119.346 121.849 119.306 121.704 119.274C121.737 119.241 121.817 119.197 121.946 119.141C122.075 119.084 122.156 119.048 122.188 119.032C122.221 119.016 122.301 118.995 122.43 118.971C122.559 118.947 122.64 118.919 122.672 118.887C122.688 118.854 122.688 118.774 122.672 118.645C122.656 118.516 122.656 118.435 122.672 118.403C122.688 118.354 122.737 118.302 122.817 118.245C122.898 118.189 122.983 118.132 123.071 118.076C123.16 118.02 123.229 117.955 123.277 117.882C123.325 117.81 123.325 117.741 123.277 117.677C123.325 117.644 123.41 117.616 123.531 117.592C123.652 117.568 123.729 117.556 123.761 117.556C123.793 117.556 123.858 117.576 123.955 117.616C124.051 117.657 124.116 117.677 124.148 117.677L124.221 117.677C124.366 117.677 124.418 117.608 124.378 117.471C124.338 117.334 124.342 117.233 124.39 117.169C124.422 117.136 124.487 117.104 124.584 117.072C124.68 117.04 124.789 117.007 124.91 116.975C125.031 116.943 125.144 116.902 125.249 116.854C125.354 116.806 125.431 116.749 125.479 116.685C125.495 116.669 125.519 116.628 125.552 116.564C125.584 116.499 125.608 116.459 125.624 116.443C125.624 116.427 125.66 116.406 125.733 116.382C125.806 116.358 125.85 116.346 125.866 116.346C125.882 116.33 125.878 116.306 125.854 116.273C125.83 116.241 125.818 116.217 125.818 116.201L125.624 116.201L125.624 115.789C125.656 115.789 125.733 115.793 125.854 115.801C125.975 115.81 126.06 115.822 126.108 115.838L126.205 115.959C126.221 115.959 126.245 115.963 126.277 115.971C126.31 115.979 126.334 115.983 126.35 115.983C126.431 115.983 126.499 115.959 126.556 115.91C126.612 115.862 126.665 115.81 126.713 115.753C126.761 115.697 126.814 115.64 126.87 115.584C126.927 115.527 126.995 115.491 127.076 115.475C127.124 115.475 127.225 115.483 127.378 115.499C127.532 115.515 127.632 115.523 127.681 115.523L127.681 115.136C127.568 115.136 127.491 115.14 127.451 115.148C127.411 115.156 127.386 115.168 127.378 115.184C127.37 115.201 127.362 115.213 127.354 115.221C127.346 115.229 127.318 115.233 127.27 115.233C127.14 115.233 127.06 115.164 127.028 115.027C126.995 114.89 126.971 114.789 126.955 114.725L126.955 114.676L126.955 114.628C126.971 114.612 126.991 114.576 127.015 114.519C127.04 114.463 127.06 114.418 127.076 114.386C127.108 114.321 127.153 114.245 127.209 114.156C127.266 114.067 127.302 114.015 127.318 113.999C127.35 113.983 127.451 113.963 127.62 113.938C127.79 113.914 127.891 113.894 127.923 113.878C127.955 113.862 127.995 113.765 128.044 113.587C128.092 113.41 128.133 113.305 128.165 113.273C128.181 113.257 128.225 113.237 128.298 113.212C128.37 113.188 128.407 113.168 128.407 113.152C128.439 113.12 128.483 113.043 128.54 112.922C128.596 112.801 128.633 112.716 128.649 112.668L128.721 112.668C128.867 112.668 129 112.704 129.121 112.777C129.242 112.849 129.363 112.926 129.484 113.007C129.605 113.087 129.726 113.164 129.846 113.237C129.967 113.309 130.109 113.346 130.27 113.346C130.27 113.458 130.238 113.596 130.173 113.757C130.109 113.918 130.028 114.084 129.931 114.253C129.834 114.422 129.738 114.584 129.641 114.737C129.544 114.89 129.463 115.015 129.399 115.112C129.334 115.193 129.246 115.245 129.133 115.269C129.02 115.293 128.947 115.362 128.915 115.475L128.915 115.717C128.754 116.039 128.528 116.378 128.237 116.733C127.947 117.088 127.681 117.403 127.439 117.677C127.407 117.709 127.35 117.769 127.27 117.858C127.189 117.947 127.104 118.036 127.015 118.124C126.927 118.213 126.842 118.298 126.761 118.378C126.681 118.459 126.624 118.507 126.592 118.524C126.576 118.524 126.536 118.544 126.471 118.584C126.407 118.624 126.366 118.645 126.35 118.645C126.334 118.661 126.31 118.681 126.277 118.705C126.245 118.729 126.221 118.758 126.205 118.79C126.205 118.806 126.185 118.846 126.144 118.911C126.104 118.975 126.068 119.052 126.036 119.141C126.003 119.229 125.967 119.31 125.927 119.383C125.886 119.455 125.866 119.5 125.866 119.516C125.834 119.532 125.729 119.548 125.552 119.564C125.374 119.58 125.269 119.596 125.237 119.612C125.221 119.629 125.185 119.689 125.128 119.794C125.072 119.899 125.027 119.959 124.995 119.975C124.963 119.992 124.939 120 124.922 120L124.826 120C124.697 120 124.584 119.983 124.487 119.951C124.39 119.919 124.285 119.903 124.172 119.903C124.172 120 124.197 120.072 124.245 120.121C124.293 120.169 124.342 120.25 124.39 120.363C124.342 120.346 124.273 120.355 124.184 120.387C124.096 120.419 124.035 120.443 124.003 120.459C123.987 120.492 123.987 120.556 124.003 120.653C124.019 120.75 124.019 120.814 124.003 120.847C124.003 120.863 123.987 120.887 123.955 120.919L123.906 120.967L123.906 121.088C123.858 121.169 123.797 121.209 123.725 121.209C123.652 121.209 123.576 121.205 123.495 121.197C123.414 121.189 123.342 121.189 123.277 121.197C123.213 121.205 123.172 121.25 123.156 121.33C123.188 121.363 123.273 121.407 123.41 121.464C123.547 121.52 123.632 121.556 123.664 121.572C123.68 121.572 123.717 121.568 123.773 121.56C123.83 121.552 123.874 121.548 123.906 121.548L123.906 121.306C124.051 121.306 124.132 121.371 124.148 121.5C124.164 121.629 124.197 121.734 124.245 121.814C124.261 121.831 124.285 121.826 124.318 121.802C124.35 121.778 124.374 121.766 124.39 121.766L124.39 121.548C124.535 121.548 124.68 121.585 124.826 121.657C124.971 121.73 125.027 121.871 124.995 122.081C125.076 122.064 125.12 122.028 125.128 121.972C125.136 121.915 125.136 121.851 125.128 121.778C125.12 121.705 125.116 121.641 125.116 121.585C125.116 121.528 125.156 121.484 125.237 121.451C125.269 121.451 125.334 121.443 125.431 121.427C125.527 121.411 125.628 121.395 125.733 121.379C125.838 121.363 125.935 121.351 126.023 121.343C126.112 121.334 126.173 121.33 126.205 121.33C126.318 121.33 126.523 121.322 126.822 121.306C127.12 121.29 127.431 121.278 127.753 121.27C128.076 121.262 128.383 121.25 128.673 121.234C128.963 121.218 129.165 121.209 129.278 121.209L129.399 121.088C129.415 121.072 129.431 121.016 129.447 120.919C129.463 120.822 129.484 120.709 129.508 120.58C129.532 120.451 129.556 120.322 129.58 120.193C129.605 120.064 129.625 119.959 129.641 119.879C129.641 119.863 129.641 119.81 129.641 119.721C129.641 119.633 129.641 119.54 129.641 119.443C129.641 119.346 129.641 119.258 129.641 119.177C129.641 119.096 129.641 119.048 129.641 119.032C129.641 118.999 129.657 118.935 129.689 118.838C129.721 118.741 129.746 118.677 129.762 118.645C129.826 118.387 129.879 118.161 129.919 117.967C129.959 117.774 129.992 117.588 130.016 117.411C130.04 117.233 130.06 117.048 130.076 116.854C130.092 116.66 130.117 116.427 130.149 116.152C130.181 116.072 130.226 116.027 130.282 116.019C130.338 116.011 130.399 116.007 130.464 116.007C130.496 116.007 130.552 116.011 130.633 116.019C130.714 116.027 130.754 116.072 130.754 116.152C130.754 116.201 130.762 116.185 130.778 116.104C130.794 116.023 130.778 116.015 130.73 116.08C130.859 116.273 131.028 116.402 131.238 116.467C131.448 116.531 131.657 116.564 131.867 116.564C131.867 116.596 131.847 116.656 131.806 116.745C131.766 116.834 131.73 116.894 131.698 116.927C131.714 116.894 131.71 116.85 131.685 116.794C131.661 116.737 131.633 116.701 131.601 116.685C131.568 116.669 131.512 116.681 131.431 116.721C131.351 116.761 131.294 116.781 131.262 116.781C131.262 116.798 131.254 116.806 131.238 116.806C131.222 116.806 131.214 116.814 131.214 116.83C131.246 116.846 131.31 116.902 131.407 116.999C131.504 117.096 131.568 117.152 131.601 117.169C131.617 117.201 131.669 117.298 131.758 117.459C131.847 117.62 131.931 117.701 132.012 117.701C132.028 117.701 132.04 117.697 132.048 117.689C132.056 117.681 132.069 117.677 132.085 117.677C132.036 117.596 131.996 117.528 131.964 117.471C131.931 117.415 131.915 117.338 131.915 117.241C131.948 117.241 132.016 117.249 132.121 117.265C132.226 117.282 132.294 117.298 132.327 117.314C132.423 117.346 132.484 117.423 132.508 117.544C132.532 117.665 132.593 117.749 132.69 117.798C132.722 117.798 132.782 117.814 132.871 117.846C132.96 117.878 133.02 117.903 133.053 117.919L133.053 117.943C133.053 117.959 133.061 117.975 133.077 117.991L133.053 118.04C133.02 118.056 132.96 118.08 132.871 118.112C132.782 118.145 132.722 118.161 132.69 118.161C132.69 118.241 132.73 118.282 132.811 118.282C132.859 118.282 132.968 118.29 133.137 118.306C133.307 118.322 133.424 118.33 133.488 118.33C133.488 118.362 133.48 118.435 133.464 118.548C133.448 118.661 133.432 118.741 133.416 118.79C133.399 118.887 133.347 118.923 133.258 118.899C133.17 118.874 133.101 118.919 133.053 119.032C133.004 119.129 132.972 119.197 132.956 119.237C132.94 119.278 132.851 119.322 132.69 119.371L133.319 119.371C133.319 119.596 133.254 119.802 133.125 119.988C132.996 120.173 132.932 120.379 132.932 120.605C132.932 120.685 132.952 120.806 132.992 120.967C133.032 121.129 133.093 121.209 133.174 121.209C133.19 121.209 133.23 121.189 133.295 121.149C133.359 121.109 133.399 121.088 133.416 121.088C133.674 121.008 133.867 120.967 133.996 120.967C134.125 120.967 134.343 120.967 134.65 120.967L135.375 120.967C135.408 120.967 135.472 120.984 135.569 121.016C135.666 121.048 135.722 121.072 135.738 121.088C135.787 121.105 135.876 121.129 136.005 121.161C136.134 121.193 136.214 121.209 136.247 121.209L136.295 121.209L136.343 121.209C136.376 121.209 136.44 121.189 136.537 121.149C136.634 121.109 136.698 121.088 136.73 121.088C136.779 121.088 136.88 121.105 137.033 121.137C137.186 121.169 137.287 121.193 137.335 121.209C137.368 121.242 137.416 121.286 137.481 121.343C137.545 121.399 137.577 121.435 137.577 121.451C137.577 121.484 137.541 121.548 137.468 121.645C137.396 121.742 137.352 121.798 137.335 121.814L137.335 121.887C137.335 121.968 137.384 122.032 137.481 122.081C137.577 122.129 137.65 122.161 137.698 122.177C137.521 122.323 137.432 122.484 137.432 122.661L137.432 122.758C137.432 122.774 137.44 122.79 137.456 122.806C137.456 122.839 137.493 122.919 137.565 123.048C137.638 123.177 137.682 123.258 137.698 123.29L137.698 123.363L137.698 123.411C137.569 123.218 137.412 123.105 137.226 123.073C137.041 123.04 136.851 123.024 136.658 123.024C136.626 123.024 136.557 123.028 136.452 123.036C136.347 123.044 136.279 123.048 136.247 123.048C136.166 123.097 136.101 123.19 136.053 123.327C136.005 123.464 135.94 123.532 135.859 123.532L135.763 123.484C135.73 123.468 135.702 123.456 135.678 123.448C135.654 123.44 135.634 123.427 135.617 123.411L135.496 123.29L135.424 123.29C135.408 123.29 135.384 123.298 135.351 123.315C135.351 123.508 135.323 123.625 135.267 123.665C135.21 123.706 135.146 123.73 135.073 123.738C135 123.746 134.936 123.762 134.879 123.786C134.823 123.811 134.795 123.895 134.795 124.04C134.779 124.04 134.775 124.036 134.783 124.028C134.791 124.02 134.787 124.016 134.771 124.016C134.69 123.984 134.557 123.924 134.371 123.835C134.186 123.746 134.077 123.686 134.045 123.653C134.012 123.637 133.98 123.601 133.948 123.544C133.916 123.488 133.899 123.444 133.899 123.411L132.811 123.411C132.827 123.25 132.742 123.149 132.557 123.109C132.371 123.069 132.23 123.048 132.133 123.048L132.085 123.048C132.069 123.065 132.044 123.101 132.012 123.157C131.98 123.214 131.956 123.258 131.94 123.29L131.214 123.29C131.181 123.29 131.157 123.319 131.141 123.375C131.125 123.432 131.113 123.496 131.105 123.569C131.097 123.641 131.093 123.71 131.093 123.774C131.093 123.839 131.093 123.871 131.093 123.871L131.093 124.137C131.109 124.17 131.153 124.234 131.226 124.331C131.298 124.428 131.343 124.492 131.359 124.524C131.359 124.541 131.391 124.621 131.456 124.766C131.52 124.912 131.568 124.992 131.601 125.008C131.633 125.024 131.714 125.024 131.843 125.008C131.972 124.992 132.052 124.992 132.085 125.008C132.101 125.008 132.125 125.024 132.157 125.057C132.173 125.073 132.181 125.089 132.181 125.105C132.117 125.202 132.036 125.266 131.94 125.299C131.843 125.331 131.75 125.355 131.661 125.371C131.573 125.387 131.496 125.416 131.431 125.456C131.367 125.496 131.335 125.573 131.335 125.686C131.335 125.767 131.335 125.863 131.335 125.976C131.335 126.089 131.343 126.206 131.359 126.327C131.375 126.448 131.403 126.557 131.443 126.654C131.484 126.751 131.536 126.807 131.601 126.823L131.407 126.92C131.278 126.984 131.214 127.033 131.214 127.065C131.214 127.081 131.234 127.122 131.274 127.186C131.314 127.251 131.343 127.291 131.359 127.307L131.359 127.38L131.359 127.452C131.278 127.565 131.149 127.63 130.972 127.646C130.794 127.662 130.673 127.678 130.609 127.694C130.657 127.791 130.75 127.851 130.887 127.876C131.024 127.9 131.169 127.928 131.322 127.96C131.476 127.993 131.609 128.041 131.722 128.106C131.835 128.17 131.891 128.275 131.891 128.42L131.383 128.42C131.367 128.436 131.359 128.452 131.359 128.468C131.359 128.517 131.359 128.541 131.359 128.541C131.359 128.557 131.395 128.581 131.468 128.614C131.54 128.646 131.585 128.662 131.601 128.662C131.617 128.678 131.633 128.739 131.649 128.844C131.665 128.948 131.681 129.009 131.698 129.025C131.698 129.025 131.738 129.025 131.819 129.025L131.94 129.025C131.972 129.057 132.02 129.138 132.085 129.267C132.149 129.396 132.181 129.477 132.181 129.509C132.165 129.59 132.137 129.634 132.097 129.642C132.056 129.65 132.004 129.654 131.94 129.654C131.778 129.654 131.665 129.573 131.601 129.412C131.52 129.444 131.476 129.477 131.468 129.509C131.46 129.541 131.456 129.582 131.456 129.63L130.851 130.017ZM130.851 124.766L130.972 124.766L130.972 124.621L130.851 124.621L130.851 124.766ZM131.601 124.089C131.601 123.928 131.681 123.77 131.843 123.617C132.004 123.464 132.117 123.355 132.181 123.29L132.254 123.266C132.254 123.266 132.27 123.274 132.302 123.29L132.327 123.29C132.343 123.307 132.367 123.359 132.399 123.448C132.432 123.536 132.448 123.605 132.448 123.653C132.448 123.686 132.452 123.706 132.46 123.714C132.468 123.722 132.472 123.742 132.472 123.774L132.472 123.847L131.819 123.847L131.819 123.944C131.819 123.976 131.827 124 131.843 124.016C131.827 124.032 131.806 124.073 131.782 124.137C131.758 124.202 131.73 124.25 131.698 124.282C131.681 124.266 131.661 124.242 131.637 124.21C131.613 124.178 131.601 124.153 131.601 124.137L131.601 124.089ZM121.317 123.508C121.253 123.508 121.192 123.532 121.136 123.581C121.079 123.629 121.051 123.694 121.051 123.774L121.317 123.774L121.317 123.508ZM134.529 123.411C134.529 123.444 134.545 123.472 134.577 123.496C134.609 123.52 134.633 123.532 134.65 123.532C134.682 123.532 134.742 123.52 134.831 123.496C134.92 123.472 134.98 123.444 135.012 123.411C134.98 123.395 134.936 123.371 134.879 123.339C134.823 123.307 134.787 123.29 134.771 123.29L134.698 123.29L134.65 123.29C134.633 123.29 134.609 123.307 134.577 123.339C134.545 123.371 134.529 123.395 134.529 123.411ZM134.287 123.411L134.383 123.29L134.287 123.169L134.141 123.29L134.287 123.411ZM132.786 122.806C132.786 122.968 132.875 123.048 133.053 123.048C133.085 123.048 133.113 123.032 133.137 123C133.161 122.968 133.174 122.935 133.174 122.903C133.141 122.855 133.093 122.81 133.028 122.77C132.964 122.73 132.891 122.694 132.811 122.661C132.811 122.677 132.807 122.702 132.798 122.734C132.79 122.766 132.786 122.79 132.786 122.806ZM134.529 122.903C134.448 122.903 134.408 122.948 134.408 123.036C134.408 123.125 134.448 123.169 134.529 123.169C134.593 123.169 134.625 123.125 134.625 123.036C134.625 122.948 134.593 122.903 134.529 122.903ZM133.924 122.395C133.762 122.395 133.633 122.468 133.536 122.613C133.44 122.758 133.391 122.903 133.391 123.048C133.617 123.048 133.762 122.988 133.827 122.867C133.891 122.746 133.924 122.589 133.924 122.395ZM131.94 121.935C131.923 121.903 131.895 121.911 131.855 121.96C131.814 122.008 131.81 122.048 131.843 122.081C131.875 122.097 131.907 122.089 131.94 122.056C131.972 122.024 131.972 121.984 131.94 121.935ZM124.632 121.935L124.753 121.935L124.753 121.814L124.632 121.814L124.632 121.935ZM131.068 120.943C131.068 121.072 131.089 121.173 131.129 121.246C131.169 121.318 131.254 121.355 131.383 121.355C131.383 121.242 131.363 121.145 131.322 121.064C131.282 120.984 131.197 120.943 131.068 120.943ZM123.713 120.435C123.567 120.435 123.479 120.5 123.446 120.629C123.414 120.758 123.398 120.879 123.398 120.992C123.559 120.992 123.652 120.931 123.676 120.81C123.701 120.689 123.713 120.564 123.713 120.435ZM121.317 120.726C121.269 120.726 121.245 120.766 121.245 120.847C121.245 120.927 121.269 120.967 121.317 120.967C121.398 120.967 121.438 120.927 121.438 120.847C121.438 120.766 121.398 120.726 121.317 120.726ZM122.188 120.459C122.124 120.459 122.091 120.504 122.091 120.592C122.091 120.681 122.124 120.726 122.188 120.726C122.253 120.726 122.285 120.681 122.285 120.592C122.285 120.504 122.253 120.459 122.188 120.459ZM122.309 120.048C122.309 120.145 122.35 120.225 122.43 120.29C122.511 120.355 122.592 120.387 122.672 120.387L122.745 120.387C122.761 120.387 122.777 120.379 122.793 120.363C122.664 120.169 122.503 120.04 122.309 119.975L122.309 120.048ZM132.932 119.758C132.867 119.758 132.835 119.794 132.835 119.867C132.835 119.939 132.867 119.975 132.932 119.975C132.996 119.975 133.028 119.939 133.028 119.867C133.028 119.794 132.996 119.758 132.932 119.758ZM124.124 118.862C124.124 118.991 124.144 119.149 124.184 119.334C124.225 119.52 124.342 119.612 124.535 119.612C124.535 119.483 124.511 119.326 124.463 119.141C124.414 118.955 124.301 118.862 124.124 118.862ZM130.488 118.887C130.423 118.887 130.391 118.927 130.391 119.008C130.391 119.088 130.423 119.129 130.488 119.129C130.552 119.129 130.584 119.088 130.584 119.008C130.584 118.927 130.552 118.887 130.488 118.887ZM123.761 118.645C123.777 118.612 123.761 118.596 123.713 118.596C123.664 118.596 123.648 118.612 123.664 118.645C123.68 118.677 123.701 118.693 123.725 118.693C123.749 118.693 123.761 118.677 123.761 118.645ZM124.511 118.524L124.632 118.524L124.632 118.403L124.511 118.524ZM130.367 118.524L130.488 118.524L130.488 118.403L130.367 118.524ZM123.519 118.378C123.697 118.378 123.805 118.314 123.846 118.185C123.886 118.056 123.906 117.927 123.906 117.798L123.519 117.798L123.519 118.378ZM124.245 118.282C124.277 118.249 124.241 118.233 124.136 118.233C124.031 118.233 123.987 118.249 124.003 118.282C124.035 118.314 124.084 118.33 124.148 118.33C124.213 118.33 124.245 118.314 124.245 118.282ZM124.632 117.556L124.995 117.556L124.995 117.435L124.632 117.435L124.632 117.556ZM127.318 114.967C127.334 114.934 127.318 114.918 127.27 114.918C127.221 114.918 127.197 114.934 127.197 114.967C127.213 115.015 127.233 115.039 127.257 115.039C127.282 115.039 127.302 115.015 127.318 114.967ZM127.439 114.241L127.681 114.241L127.439 114.144L127.439 114.241ZM128.552 113.394L128.794 113.394L128.552 113.273L128.552 113.394Z"/>
</g>
</g>
<g id="Слой-4">
<path d="M113.502 64.6798L131.852 64.6798C131.852 64.6798 127.744 74.2223 122.677 74.2223C117.61 74.2223 113.502 64.6798 113.502 64.6798Z" fill="#f2f2f2" fill-rule="nonzero" opacity="1" stroke="#000000" stroke-linecap="butt" stroke-linejoin="round" stroke-width="1"/>
<path d="M113.72 64.4792L123.4 64.6383C123.4 64.6383 121.154 69.3845 118.481 69.3406C115.809 69.2966 113.72 64.4792 113.72 64.4792Z" fill="#000000" fill-rule="nonzero" opacity="1" stroke="#000000" stroke-linecap="butt" stroke-linejoin="round" stroke-width="1"/>
</g>
<g id="Слой-4-скопировать">
<path d="M134.845 64.6798L148.961 64.6798C148.961 64.6798 145.801 72.0315 141.903 72.0315C138.005 72.0315 134.845 64.6798 134.845 64.6798Z" fill="#f2f2f2" fill-rule="nonzero" opacity="1" stroke="#000000" stroke-linecap="butt" stroke-linejoin="round" stroke-width="1"/>
<path d="M135.637 65.0678L143.084 65.0678C143.084 65.0678 141.417 68.7523 139.36 68.7523C137.304 68.7523 135.637 65.0678 135.637 65.0678Z" fill="#000000" fill-rule="nonzero" opacity="1" stroke="#000000" stroke-linecap="butt" stroke-linejoin="round" stroke-width="1"/>
</g>
<g id="Слой-5">
<path d="M131.758 74.0993C131.758 72.9867 133.768 71.6846 134.815 71.6846C135.862 71.6846 137.933 72.7466 137.933 73.8592C137.933 74.9717 137.271 74.0756 135.121 77.1545C133.103 74.0756 131.758 75.2119 131.758 74.0993Z" fill="#272727" fill-rule="nonzero" opacity="1" stroke="#000000" stroke-linecap="butt" stroke-linejoin="round" stroke-width="1"/>
<path d="M123.059 81.2409C123.059 81.2409 123.484 82.8797 125.056 83.6216C127.427 84.7416 131.62 84.5768 134.633 79.6762C134.633 79.6762 139.578 85.8189 144.896 81.8574C145.558 81.3643 145.957 80.4225 146.632 79.5953" fill="none" opacity="1" stroke="#000000" stroke-linecap="butt" stroke-linejoin="round" stroke-width="1"/>
</g>
</svg>
