
<svg viewBox="0 0 180 180" xml:space="preserve" xmlns="http://www.w3.org/2000/svg" xmlns:xlink="http://www.w3.org/1999/xlink">
<defs/>
<g id="Layer-2">
<path d="M39.7438 152.685C39.7438 152.685 18.4772 138.427 23.673 86.2267C23.673 86.2267-2.21054 60.1594 28.4641 7.05391C28.4641 7.05391 46.8689-10.3923 29.0392 71.0872C29.0392 71.0872 35.7442 56.3251 90 59.9677L108.588 36.9368L115.559 59.55L118.625 59.0776L132.395 37.7722L139.713 60.8373C139.713 60.8373 159.82 63.4532 159.346 122.542C159.335 123.923 167.027 126.125 167.027 126.125C167.027 126.125 180 120.432 168.801 131.861C166.452 134.258 155.871 131.479 155.871 131.479C155.871 131.479 153.25 143.164 141.363 147.382C141.363 147.382 135.77 155.772 138.922 158.812C143.247 162.984 133.231 171.089 126.623 153.717C126.623 153.717 71.792 164.07 55.6878 155.251C55.6878 155.251 48.0216 155.935 51.5328 163.638C54.2541 169.607 43.0187 171.381 39.7438 152.685Z" fill="#ff1d24" fill-rule="nonzero" opacity="1" stroke="#1d1d1d" stroke-linecap="butt" stroke-linejoin="round" stroke-width="1"/>
</g>
<g id="Layer-3">
<path d="M58.4075 80.8659C58.4075 80.8659 65.6927 143.749 66.6513 147.2C67.6099 150.651 134.135 103.872 135.477 102.913C136.82 101.955 61.4749 81.6328 58.4075 80.8659Z" fill="#272727" fill-rule="nonzero" opacity="1" stroke="none"/>
</g>
<g id="Layer-4">
<path d="M111.785 72.3575C111.785 69.6026 113.907 67.3692 116.524 67.3692C119.141 67.3692 121.263 69.6026 121.263 72.3575C121.263 75.1125 119.141 77.3458 116.524 77.3458C113.907 77.3458 111.785 75.1125 111.785 72.3575Z" fill="#f2f2f2" fill-rule="nonzero" opacity="1" stroke="#000000" stroke-linecap="butt" stroke-linejoin="round" stroke-width="1"/>
<path d="M116.263 72.3575C116.263 70.9768 117.382 69.8575 118.763 69.8575C120.144 69.8575 121.263 70.9768 121.263 72.3575C121.263 73.7382 120.144 74.8575 118.763 74.8575C117.382 74.8575 116.263 73.7382 116.263 72.3575Z" fill="#000000" fill-rule="nonzero" opacity="1" stroke="#000000" stroke-linecap="butt" stroke-linejoin="round" stroke-width="1"/>
</g>
<g id="Layer-4-copy">
<path d="M123.548 70.7217C123.548 68.5126 125.249 66.7217 127.348 66.7217C129.448 66.7217 131.149 68.5126 131.149 70.7217C131.149 72.9309 129.448 74.7217 127.348 74.7217C125.249 74.7217 123.548 72.9309 123.548 70.7217Z" fill="#f2f2f2" fill-rule="nonzero" opacity="1" stroke="#000000" stroke-linecap="butt" stroke-linejoin="round" stroke-width="1"/>
<path d="M127.139 70.7217C127.139 69.6146 128.037 68.717 129.144 68.717C130.252 68.717 131.149 69.6146 131.149 70.7217C131.149 71.8289 130.252 72.7264 129.144 72.7264C128.037 72.7264 127.139 71.8289 127.139 70.7217Z" fill="#000000" fill-rule="nonzero" opacity="1" stroke="#000000" stroke-linecap="butt" stroke-linejoin="round" stroke-width="1"/>
</g>
<g id="Layer-5">
<path d="M122.939 77.1281C122.939 76.3714 124.306 75.4857 125.018 75.4857C125.73 75.4857 127.139 76.208 127.139 76.9647C127.139 77.7214 126.689 77.1119 125.226 79.2059C123.854 77.1119 122.939 77.8847 122.939 77.1281Z" fill="#272727" fill-rule="nonzero" opacity="1" stroke="#000000" stroke-linecap="butt" stroke-linejoin="round" stroke-width="1"/>
<path d="M117.023 81.9852C117.023 81.9852 117.312 83.0997 118.381 83.6043C119.994 84.366 122.846 84.254 124.895 80.921C124.895 80.921 128.258 85.0987 131.875 82.4045C132.325 82.0691 132.597 81.4285 133.055 80.8659" fill="none" opacity="1" stroke="#000000" stroke-linecap="butt" stroke-linejoin="round" stroke-width="1"/>
</g>
</svg>
